<?xml version="1.0" encoding="UTF-8"?>
<svg version="1.1" xmlns="http://www.w3.org/2000/svg" width="64" height="64">
<path d="M0 0 C3.00808351 1.41983523 5.80468639 3.11604116 8.625 4.875 C9.36234375 5.32230469 10.0996875 5.76960937 10.859375 6.23046875 C13.7838695 8.00717778 16.69254971 9.80586975 19.5859375 11.6328125 C22.59596837 13.33752254 25.8204593 14.6373397 29 16 C29 22.93 29 29.86 29 37 C29.99 37.33 30.98 37.66 32 38 C32.125 40.375 32.125 40.375 32 43 C31.34 43.66 30.68 44.32 30 45 C29.113125 44.95746094 28.22625 44.91492187 27.3125 44.87109375 C22.4366002 45.06083985 19.15824701 47.63702026 15.2109375 50.24414062 C12.30864536 52.05008232 10.39283552 53.00401365 6.94140625 52.96875 C3.55791015 51.85439803 0.93066902 50.37114016 -2.0625 48.4375 C-3.19234692 47.71427882 -4.32256727 46.99164077 -5.453125 46.26953125 C-6.03126953 45.89650879 -6.60941406 45.52348633 -7.20507812 45.13916016 C-9.0302606 43.98079489 -10.87609371 42.86610483 -12.734375 41.76171875 C-13.3337085 41.40343994 -13.93304199 41.04516113 -14.55053711 40.67602539 C-16.23694557 39.67006884 -17.92507404 38.66699744 -19.61328125 37.6640625 C-20.40089844 37.11492188 -21.18851563 36.56578125 -22 36 C-22 35.34 -22 34.68 -22 34 C-22.66 34 -23.32 34 -24 34 C-24.26246434 30.12629549 -24.42153564 26.25487619 -24.5625 22.375 C-24.63791016 21.28058594 -24.71332031 20.18617187 -24.79101562 19.05859375 C-25.00894839 11.06772586 -25.00894839 11.06772586 -22.1015625 7.9909668 C-19.79534089 6.45845603 -17.47909203 5.2273217 -15 4 C-13.60732604 3.04613859 -12.2288477 2.07071068 -10.875 1.0625 C-7.13556896 -1.65481989 -4.39774103 -1.08133756 0 0 Z " fill="#434950" transform="translate(28,6)"/>
<path d="M0 0 C0.66 0.33 1.32 0.66 2 1 C2 7.93 2 14.86 2 22 C2.99 22.33 3.98 22.66 5 23 C5.125 25.375 5.125 25.375 5 28 C4.34 28.66 3.68 29.32 3 30 C2.113125 29.95746094 1.22625 29.91492188 0.3125 29.87109375 C-4.5633998 30.06083985 -7.84175299 32.63702026 -11.7890625 35.24414062 C-14.85487097 37.15182981 -16.66190447 38.01315702 -20.3125 37.87109375 C-23 37 -23 37 -25 35 C-25.33070273 31.21438821 -25.04070538 27.41781196 -24.875 23.625 C-24.85179688 22.57054688 -24.82859375 21.51609375 -24.8046875 20.4296875 C-24.7634375 19.41390625 -24.7221875 18.398125 -24.6796875 17.3515625 C-24.64601074 16.42166504 -24.61233398 15.49176758 -24.57763672 14.53369141 C-23.68682908 10.62633649 -21.33282175 8.92909016 -18.140625 6.70385742 C-16.10070019 5.51873065 -14.05623955 4.34413475 -12 3.1875 C-11.2884375 2.76791016 -10.576875 2.34832031 -9.84375 1.91601562 C-8.80734375 1.32916992 -8.80734375 1.32916992 -7.75 0.73046875 C-7.12609375 0.37364014 -6.5021875 0.01681152 -5.859375 -0.35083008 C-3.5103289 -1.17096054 -2.31562825 -0.8214141 0 0 Z " fill="#DBDEE5" transform="translate(55,21)"/>
<path d="M0 0 C3.65357103 1.46142841 6.71628422 2.87932955 10.08203125 4.8203125 C11.01337891 5.35527344 11.94472656 5.89023437 12.90429688 6.44140625 C13.86400391 6.99699219 14.82371094 7.55257813 15.8125 8.125 C16.79154297 8.68832031 17.77058594 9.25164063 18.77929688 9.83203125 C21.18788035 11.21843539 23.59416689 12.6088286 26 14 C26 21.59 26 29.18 26 37 C6.44380018 26.78144514 6.44380018 26.78144514 2 23 C2 22.34 2 21.68 2 21 C1.34 21 0.68 21 0 21 C0 14.07 0 7.14 0 0 Z " fill="#2A2F33" transform="translate(4,19)"/>
<path d="M0 0 C2.375 0.875 2.375 0.875 4.375 3.875 C4.41580783 5.87458364 4.41754356 7.87545254 4.375 9.875 C5.26835797 12.23285318 5.26835797 12.23285318 8.4375 13 C9.406875 13.28875 10.37625 13.5775 11.375 13.875 C11.5 16.25 11.5 16.25 11.375 18.875 C9.375 20.875 9.375 20.875 6.75 21 C5.96625 20.95875 5.1825 20.9175 4.375 20.875 C4.375 20.215 4.375 19.555 4.375 18.875 C0.51928327 17.84053942 -1.76741968 17.71775891 -5.3125 19.4375 C-6.405625 19.911875 -7.49875 20.38625 -8.625 20.875 C-9.615 20.215 -10.605 19.555 -11.625 18.875 C-12.44890732 12.90167191 -11.42714187 9.49083727 -7.984375 4.578125 C-5.48904551 1.45179265 -4.12823551 -0.19658264 0 0 Z " fill="#C8CCD4" transform="translate(48.625,30.125)"/>
<path d="M0 0 C0.33 0.66 0.66 1.32 1 2 C0.690625 2.53625 0.38125 3.0725 0.0625 3.625 C-1.50799373 7.13551539 -1.12756928 10.17292161 -1 14 C0.96336845 15.27494171 0.96336845 15.27494171 3.0234375 14.3359375 C4.58851917 13.69638585 6.15105315 13.05056307 7.7109375 12.3984375 C10 12 10 12 12.2890625 13.4140625 C12.85367188 13.93742187 13.41828125 14.46078125 14 15 C11.96560073 16.32507609 9.92366893 17.63481378 7.875 18.9375 C7.02035156 19.49727539 7.02035156 19.49727539 6.1484375 20.06835938 C2.43510776 22.41028893 -0.63152618 23.58174187 -5 24 C-4.67 22.68 -4.34 21.36 -4 20 C-3.01 20.33 -2.02 20.66 -1 21 C-0.67 20.34 -0.34 19.68 0 19 C-1.65 19 -3.3 19 -5 19 C-5.13536629 16.58145554 -5.23420279 14.17050217 -5.3125 11.75 C-5.35439453 11.06808594 -5.39628906 10.38617188 -5.43945312 9.68359375 C-5.48828125 7.671875 -5.48828125 7.671875 -5 4 C-2.48046875 1.515625 -2.48046875 1.515625 0 0 Z " fill="#DADEE6" transform="translate(39,35)"/>
<path d="M0 0 C9.38553809 4.45681976 18.13799709 9.58433156 27 15 C26.67 23.58 26.34 32.16 26 41 C25.67 41 25.34 41 25 41 C25 33.41 25 25.82 25 18 C23.35 17.34 21.7 16.68 20 16 C18.54634401 15.25503806 17.10588959 14.48376104 15.6796875 13.6875 C14.89722656 13.25179688 14.11476563 12.81609375 13.30859375 12.3671875 C12.50550781 11.91601562 11.70242187 11.46484375 10.875 11 C10.06417969 10.54882812 9.25335938 10.09765625 8.41796875 9.6328125 C5.20235321 7.83631985 2.06698019 6.04465346 -1 4 C-0.67 2.68 -0.34 1.36 0 0 Z " fill="#3B4045" transform="translate(5,15)"/>
<path d="M0 0 C0.66 0.33 1.32 0.66 2 1 C2 1.66 2 2.32 2 3 C2.66 3.66 3.32 4.32 4 5 C2.625 7.5 2.625 7.5 1 10 C0.34 10 -0.32 10 -1 10 C-0.67 14.62 -0.34 19.24 0 24 C1.32 24.33 2.64 24.66 4 25 C3.67 25.99 3.34 26.98 3 28 C2.01 27.67 1.02 27.34 0 27 C-0.33 27.66 -0.66 28.32 -1 29 C-2.32 28.34 -3.64 27.68 -5 27 C-4.94812459 23.24887102 -4.85304782 19.50004468 -4.75 15.75 C-4.73582031 14.68652344 -4.72164062 13.62304688 -4.70703125 12.52734375 C-4.67480469 11.50253906 -4.64257812 10.47773437 -4.609375 9.421875 C-4.58842773 8.47924805 -4.56748047 7.53662109 -4.54589844 6.56542969 C-3.85780753 3.33177169 -2.483164 2.10246987 0 0 Z " fill="#C0C5CE" transform="translate(35,29)"/>
<path d="M0 0 C1.32 0 2.64 0 4 0 C4.33 0.66 4.66 1.32 5 2 C6.97888961 2.72693904 8.97954558 3.39816251 11 4 C11.125 6.375 11.125 6.375 11 9 C9 11 9 11 6.375 11.125 C5.59125 11.08375 4.8075 11.0425 4 11 C4 10.34 4 9.68 4 9 C3.195625 8.7525 2.39125 8.505 1.5625 8.25 C-1 7 -1 7 -1.9375 5.0625 C-2 3 -2 3 0 0 Z " fill="#C5C9D0" transform="translate(49,40)"/>
<path d="M0 0 C3.14261927 0.9500942 5.72448964 1.80926206 8.4375 3.6875 C11.92549278 5.47403289 14.25254165 4.80827533 18 4 C18 5.32 18 6.64 18 8 C13.92857143 11 13.92857143 11 11 11 C10.67 10.01 10.34 9.02 10 8 C7.67837811 6.39135172 7.67837811 6.39135172 4.9375 4.9375 C2.15234375 3.40234375 2.15234375 3.40234375 0 2 C0 1.34 0 0.68 0 0 Z " fill="#2B3236" transform="translate(20,13)"/>
<path d="M0 0 C3.67935056 1.97728879 7.34182555 3.98382203 11 6 C12.12277344 6.61101563 13.24554688 7.22203125 14.40234375 7.8515625 C15.48644531 8.45742188 16.57054688 9.06328125 17.6875 9.6875 C18.70199219 10.24824219 19.71648438 10.80898438 20.76171875 11.38671875 C21.50035156 11.91910156 22.23898438 12.45148437 23 13 C23 13.99 23 14.98 23 16 C19.34566351 13.91034469 15.70314021 11.80091298 12.0625 9.6875 C11.02158203 9.09259766 9.98066406 8.49769531 8.90820312 7.88476562 C7.91884766 7.30791016 6.92949219 6.73105469 5.91015625 6.13671875 C4.53549194 5.34334106 4.53549194 5.34334106 3.13305664 4.53393555 C1 3 1 3 0 0 Z " fill="#181D1D" transform="translate(6,40)"/>
<path d="M0 0 C0.99 0 1.98 0 3 0 C3.33 0.66 3.66 1.32 4 2 C6.01669827 3.13350534 6.01669827 3.13350534 8 4 C7.67 4.99 7.34 5.98 7 7 C4.03 6.505 4.03 6.505 1 6 C0.67 4.02 0.34 2.04 0 0 Z " fill="#695170" transform="translate(18,42)"/>
<path d="M0 0 C1.32 0.66 2.64 1.32 4 2 C2.625 4.5 2.625 4.5 1 7 C0.34 7 -0.32 7 -1 7 C-1 9.64 -1 12.28 -1 15 C-1.33 15 -1.66 15 -2 15 C-2.05429959 13.25034642 -2.09292823 11.50020213 -2.125 9.75 C-2.15980469 8.28820312 -2.15980469 8.28820312 -2.1953125 6.796875 C-1.99862781 3.9803502 -1.44568916 2.39050964 0 0 Z " fill="#B4B9C1" transform="translate(35,32)"/>
<path d="M0 0 C0.556875 0.226875 1.11375 0.45375 1.6875 0.6875 C-1.77997828 3.46148263 -5.37652511 5.64662413 -9.3125 7.6875 C-9.9725 7.3575 -10.6325 7.0275 -11.3125 6.6875 C-4.51779801 -0.61051325 -4.51779801 -0.61051325 0 0 Z " fill="#E7EAF0" transform="translate(53.3125,20.3125)"/>
<path d="M0 0 C2.475 0.99 2.475 0.99 5 2 C4.34 3.98 3.68 5.96 3 8 C1.68 7.34 0.36 6.68 -1 6 C-1.042721 4.33388095 -1.04063832 2.66617115 -1 1 C-0.67 0.67 -0.34 0.34 0 0 Z " fill="#E3E7ED" transform="translate(44,38)"/>
<path d="M0 0 C1.1446875 0.3403125 1.1446875 0.3403125 2.3125 0.6875 C1.9825 1.6775 1.6525 2.6675 1.3125 3.6875 C0.673125 3.501875 0.03375 3.31625 -0.625 3.125 C-1.6459375 2.9084375 -1.6459375 2.9084375 -2.6875 2.6875 C-3.96306818 3.73974667 -3.96306818 3.73974667 -3.8125 6.125 C-3.86056676 8.67728622 -3.86056676 8.67728622 -2.6875 10.6875 C-4.0075 10.3575 -5.3275 10.0275 -6.6875 9.6875 C-6.0875 3.3275 -6.0875 3.3275 -4.4375 0.6875 C-2.6875 -0.3125 -2.6875 -0.3125 0 0 Z " fill="#5C636A" transform="translate(47.6875,35.3125)"/>
<path d="M0 0 C-0.33 1.65 -0.66 3.3 -1 5 C-1.99 5 -2.98 5 -4 5 C-4.66 3.68 -5.32 2.36 -6 1 C-4 0 -4 0 0 0 Z " fill="#B0B5BB" transform="translate(57,22)"/>
<path d="M0 0 C1.32 0 2.64 0 4 0 C4 0.66 4 1.32 4 2 C3.01 2.495 3.01 2.495 2 3 C1.34444881 5.52733235 1.34444881 5.52733235 1 8 C0.01 7.34 -0.98 6.68 -2 6 C-1.49396008 3.83125748 -1.00016187 2.00032373 0 0 Z " fill="#60666C" transform="translate(49,40)"/>
<path d="M0 0 C0 1.32 0 2.64 0 4 C-1.98 4.66 -3.96 5.32 -6 6 C-5.6875 4.125 -5.6875 4.125 -5 2 C-2 0 -2 0 0 0 Z " fill="#1A2121" transform="translate(38,17)"/>
</svg>
