<?xml version="1.0" encoding="UTF-8"?>
<svg version="1.1" xmlns="http://www.w3.org/2000/svg" width="512" height="512">
<path d="M0 0 C6.74635922 6.39022671 12.7767896 13.22274264 18.45507812 20.56884766 C18.87225098 21.09897461 19.28942383 21.62910156 19.71923828 22.17529297 C32.91168023 39.01899618 42.74342615 57.65505667 50.45507812 77.56884766 C50.84300537 78.56875732 50.84300537 78.56875732 51.23876953 79.58886719 C71.00238605 131.73030038 65.81609319 190.2816772 43.45507812 240.56884766 C36.68216344 255.02794787 28.18047701 268.5291972 17.85351562 280.71337891 C16.25445102 282.44780218 16.25445102 282.44780218 16.45507812 284.56884766 C31.68912467 292.84715591 47.62183038 297.67013905 64.45507812 301.56884766 C65.14257812 304.38134766 65.14257812 304.38134766 65.45507812 307.56884766 C64.23217773 309.27929688 64.23217773 309.27929688 62.45507812 310.56884766 C60.51196289 310.71777344 60.51196289 310.71777344 58.33398438 310.38916016 C57.13733154 310.20981934 57.13733154 310.20981934 55.91650391 310.02685547 C52.03264015 309.30416866 48.21212783 308.4531255 44.39257812 307.44384766 C43.57619873 307.22865479 42.75981934 307.01346191 41.91870117 306.79174805 C31.99748987 304.05151237 22.77910726 299.89830331 13.70507812 295.06884766 C10.71985311 293.34034067 10.71985311 293.34034067 8.31445312 293.85009766 C6.25605074 294.40605105 6.25605074 294.40605105 5.45507812 296.56884766 C6.15375 296.82279297 6.85242188 297.07673828 7.57226562 297.33837891 C10.78850441 298.71116375 13.59903639 300.42821483 16.58007812 302.25634766 C29.14641948 309.62857877 42.95571595 313.82064802 57.13330078 316.8840332 C57.93171387 317.06361572 58.73012695 317.24319824 59.55273438 317.42822266 C60.25922119 317.57743164 60.96570801 317.72664063 61.69360352 317.88037109 C63.45507812 318.56884766 63.45507812 318.56884766 65.45507812 321.56884766 C64.91453758 326.1093882 64.91453758 326.1093882 63.45507812 327.56884766 C39.92991082 328.51313884 17.01084791 314.93848125 -2.54492188 303.56884766 C-2.87492187 304.55884766 -3.20492188 305.54884766 -3.54492188 306.56884766 C14.99755006 319.99943948 34.02950629 330.08246256 56.75732422 334.23999023 C59.68349997 334.79772348 62.02468571 335.25879798 64.46679688 337.01806641 C65.45507812 338.56884766 65.45507812 338.56884766 65.26757812 341.13134766 C64.45507812 343.56884766 64.45507812 343.56884766 62.45507812 345.56884766 C37.66409208 346.19481679 8.29759645 330.63931889 -9.74804688 314.65087891 C-11.46265104 313.39990751 -11.46265104 313.39990751 -13.41601562 313.61181641 C-16.43236923 314.96779188 -18.82040143 316.98835946 -21.35742188 319.06884766 C-62.54241935 351.68121637 -118.97379621 365.11785441 -170.62646484 359.21679688 C-224.05398485 352.43221904 -275.32108279 326.24667393 -309.16992188 283.69384766 C-345.66897216 235.66878149 -362.32199399 179.54952837 -354.41992188 119.19384766 C-347.61019353 73.50501729 -325.82563086 34.81057968 -294.54492188 1.56884766 C-293.92875 0.91013672 -293.31257813 0.25142578 -292.67773438 -0.42724609 C-287.70789217 -5.57543192 -282.19642509 -10.05636343 -276.54492188 -14.43115234 C-275.91714844 -14.91890137 -275.289375 -15.40665039 -274.64257812 -15.90917969 C-250.08306745 -34.79431206 -222.6339364 -47.31241432 -192.54492188 -54.43115234 C-191.86365234 -54.5984082 -191.18238281 -54.76566406 -190.48046875 -54.93798828 C-122.06670517 -71.38700589 -50.44423227 -46.72947054 0 0 Z M-250.54492188 -20.43115234 C-246.50915387 -14.17792939 -242.1905425 -8.24505034 -237.54492188 -2.43115234 C-233.0018976 -3.03573732 -229.40521987 -4.92867734 -225.41992188 -7.05615234 C-184.66899548 -28.03927148 -136.11798655 -31.24034204 -92.54492188 -17.43115234 C-83.24826319 -14.42113334 -74.49210725 -10.63656724 -65.85864258 -6.05883789 C-62.43303185 -4.26075772 -59.395684 -2.93918788 -55.54492188 -2.43115234 C-53.93738091 -4.49109695 -52.33384138 -6.5539571 -50.73242188 -8.61865234 C-50.28060547 -9.19679687 -49.82878906 -9.77494141 -49.36328125 -10.37060547 C-46.85311021 -13.61367316 -44.57248799 -16.85428322 -42.54492188 -20.43115234 C-65.50032031 -33.89302829 -89.21750633 -43.04991396 -115.54492188 -47.43115234 C-116.78371094 -47.65673828 -118.0225 -47.88232422 -119.29882812 -48.11474609 C-164.75191637 -55.22445245 -211.48018618 -43.8036887 -250.54492188 -20.43115234 Z M-182.54492188 -13.43115234 C-183.26389648 -13.27018066 -183.98287109 -13.10920898 -184.72363281 -12.94335938 C-200.86579006 -9.24692609 -216.22830438 -2.70211243 -230.54492188 5.56884766 C-229.11066966 9.71308168 -227.08136421 12.78348998 -224.41992188 16.25634766 C-223.82050781 17.04017822 -223.82050781 17.04017822 -223.20898438 17.83984375 C-221.99467721 19.42161333 -220.76987816 20.99531056 -219.54492188 22.56884766 C-218.866875 23.44412109 -218.18882812 24.31939453 -217.49023438 25.22119141 C-213.43944463 30.37008681 -209.18649551 35.28773877 -204.76757812 40.12353516 C-202.63443792 42.47036427 -200.55860114 44.85919351 -198.48242188 47.25634766 C-194.78027927 51.41581376 -190.80407541 54.99432963 -186.54492188 58.56884766 C-185.58714844 59.41447266 -184.629375 60.26009766 -183.64257812 61.13134766 C-178.04915267 66.04069131 -172.35937493 70.58203404 -166.10742188 74.63134766 C-165.54071777 75.00114746 -164.97401367 75.37094727 -164.39013672 75.75195312 C-155.76988749 81.17046821 -146.95487384 81.85902419 -137.00976562 80.12744141 C-124.20092404 75.93106277 -112.76474675 64.12630803 -103.15820312 55.00634766 C-101.27760596 53.25224806 -99.40635068 51.60956318 -97.41992188 49.98681641 C-95.09911852 48.0349451 -93.17062067 46.19015811 -91.23242188 43.88134766 C-89.38967268 41.71010839 -87.54630989 39.57031895 -85.59179688 37.49853516 C-80.32079232 31.89565254 -75.68788382 25.93133718 -71.10742188 19.75634766 C-70.49181396 18.93158936 -69.87620605 18.10683105 -69.24194336 17.25708008 C-68.37291382 16.07142456 -68.37291382 16.07142456 -67.48632812 14.86181641 C-66.96756104 14.15565186 -66.44879395 13.4494873 -65.91430664 12.72192383 C-64.4488583 10.41780742 -63.48108185 8.12865572 -62.54492188 5.56884766 C-76.46537756 -2.44217692 -90.85588393 -8.05886852 -106.35742188 -12.24365234 C-107.0725293 -12.43854248 -107.78763672 -12.63343262 -108.52441406 -12.83422852 C-120.99649699 -16.0253828 -133.430582 -16.80888397 -146.23242188 -16.74365234 C-146.97782227 -16.74182953 -147.72322266 -16.74000671 -148.49121094 -16.73812866 C-160.0701249 -16.6905547 -171.24620413 -16.10576654 -182.54492188 -13.43115234 Z M-264.66992188 -10.93115234 C-266.03503906 -9.95662109 -266.03503906 -9.95662109 -267.42773438 -8.96240234 C-268.47574219 -8.20443359 -268.47574219 -8.20443359 -269.54492188 -7.43115234 C-265.54052736 -1.30662477 -261.3531143 4.63880021 -256.98242188 10.50634766 C-255.7449848 12.18048846 -254.5080167 13.85497599 -253.27148438 15.52978516 C-251.45296193 17.99002802 -249.6335188 20.44953846 -247.80957031 22.90576172 C-239.75282307 33.77463714 -232.28743169 44.83404376 -225.54492188 56.56884766 C-224.90925293 57.66737061 -224.90925293 57.66737061 -224.26074219 58.78808594 C-218.69968644 68.51459044 -214.16975357 78.50318482 -210.10742188 88.94384766 C-209.69419678 90.00087891 -209.28097168 91.05791016 -208.85522461 92.14697266 C-203.23504872 107.05048515 -200.21431431 120.21830105 -205.54492188 135.56884766 C-210.56224288 146.24205779 -218.40419464 152.89805568 -228.10742188 159.25634766 C-229.02362305 159.85866211 -229.93982422 160.46097656 -230.88378906 161.08154297 C-244.33254653 169.79553189 -258.11470383 177.44294824 -273.02539062 183.35791016 C-274.09554916 183.78385468 -275.1657077 184.20979919 -276.26829529 184.64865112 C-288.70791385 189.52205934 -301.38793063 193.62246157 -314.10742188 197.69384766 C-316.4989537 198.4664939 -318.89023096 199.23992853 -321.28125 200.01416016 C-327.03292389 201.87476162 -332.78758911 203.72583569 -338.54492188 205.56884766 C-338.06835775 207.36120833 -337.58858689 209.15271663 -337.10742188 210.94384766 C-336.84058594 211.94158203 -336.57375 212.93931641 -336.29882812 213.96728516 C-335.64307831 216.52302466 -335.64307831 216.52302466 -334.54492188 218.56884766 C-327.2727804 216.64993836 -320.10620803 214.52125831 -312.96289062 212.17041016 C-310.95716913 211.51894385 -308.95130493 210.86791675 -306.9453125 210.21728516 C-303.85568596 209.21261554 -300.76705848 208.20524263 -297.6809082 207.18994141 C-279.8947412 201.34761298 -261.81835943 196.00199927 -243.16992188 193.75634766 C-241.7385791 193.58317017 -241.7385791 193.58317017 -240.27832031 193.40649414 C-231.46429767 192.46412752 -222.65059119 192.21805744 -213.79492188 192.13134766 C-213.12132629 192.11913177 -212.44773071 192.10691589 -211.75372314 192.09432983 C-197.7318459 191.87923879 -186.90511991 194.61091856 -176.67773438 204.34619141 C-164.75428338 216.8581389 -161.49037989 236.82124231 -158.29492188 253.25634766 C-158.144021 254.0251123 -157.99312012 254.79387695 -157.83764648 255.5859375 C-157.35216023 258.2406584 -156.94037959 260.89917963 -156.54492188 263.56884766 C-156.36977051 264.69033203 -156.19461914 265.81181641 -156.01416016 266.96728516 C-153.78859451 282.78417069 -154.09626116 298.85047411 -153.94403076 314.79058838 C-153.90346888 318.83394082 -153.85261969 322.8771639 -153.80273438 326.92041016 C-153.70694473 334.80313913 -153.62319744 342.68592531 -153.54492188 350.56884766 C-148.92492187 350.56884766 -144.30492187 350.56884766 -139.54492188 350.56884766 C-139.53033936 348.56878662 -139.51575684 346.56872559 -139.50073242 344.50805664 C-139.44973127 337.79853667 -139.3830365 331.08923312 -139.30920696 324.37992764 C-139.2650303 320.32370026 -139.22566927 316.26756132 -139.19848633 312.21118164 C-139.0445337 289.92963473 -138.51948135 267.96737638 -133.16992188 246.19384766 C-132.85075806 244.85326294 -132.85075806 244.85326294 -132.52514648 243.4855957 C-131.88472989 240.84125694 -131.22085034 238.20431145 -130.54492188 235.56884766 C-130.34108887 234.76624512 -130.13725586 233.96364258 -129.92724609 233.13671875 C-126.21072141 218.77755519 -121.39374116 206.42956379 -108.73242188 197.81884766 C-99.34887159 192.4817179 -90.03419886 192.06884665 -79.41992188 192.19384766 C-78.71761444 192.19850037 -78.01530701 192.20315308 -77.29171753 192.20794678 C-45.92851865 192.45020216 -16.93797385 200.12034567 12.70507812 209.88134766 C16.05125729 210.97477085 19.39830674 212.06543917 22.74627686 213.15336609 C24.80091524 213.82186225 26.85441319 214.49387743 28.90655518 215.16999817 C30.28650665 215.62133369 30.28650665 215.62133369 31.69433594 216.08178711 C32.49607239 216.34570755 33.29780884 216.60962799 34.12384033 216.88154602 C36.55010942 217.59686503 38.96877447 218.10932762 41.45507812 218.56884766 C42.125657 216.77864156 42.79142503 214.98663277 43.45507812 213.19384766 C43.82632812 212.19611328 44.19757813 211.19837891 44.58007812 210.17041016 C45.56134089 207.71036704 45.56134089 207.71036704 45.45507812 205.56884766 C44.783965 205.35524094 44.11285187 205.14163422 43.42140198 204.92155457 C36.96438085 202.86363848 30.51184091 200.79215336 24.06359959 198.70690441 C20.75170529 197.63637918 17.43851463 196.57041163 14.12133789 195.51635742 C-14.40035277 186.44569609 -41.51337434 175.47433014 -66.23242188 158.38134766 C-67.05846924 157.8111792 -67.8845166 157.24101074 -68.7355957 156.65356445 C-79.8073267 148.8025357 -87.92129689 139.60249343 -90.29492188 125.75634766 C-93.85953338 94.56599702 -70.81697894 58.97973232 -53.54492188 34.56884766 C-52.76761719 33.46959961 -52.76761719 33.46959961 -51.97460938 32.34814453 C-46.96931372 25.30251284 -41.85614345 18.33737041 -36.71679688 11.38916016 C-35.76619385 10.10319946 -35.76619385 10.10319946 -34.79638672 8.79125977 C-33.57532474 7.14172991 -32.35181785 5.49400616 -31.12548828 3.84838867 C-28.40558249 0.18145037 -25.78879334 -3.44469985 -23.54492188 -7.43115234 C-25.16584318 -8.60347919 -26.79179021 -9.76886005 -28.41992188 -10.93115234 C-29.32484375 -11.58083984 -30.22976563 -12.23052734 -31.16210938 -12.89990234 C-33.35327695 -14.6113584 -33.35327695 -14.6113584 -35.54492188 -14.43115234 C-37.07095958 -12.5058066 -38.47065609 -10.57935917 -39.85742188 -8.55615234 C-40.76173335 -7.26404002 -41.66671408 -5.9723959 -42.57226562 -4.68115234 C-43.29518799 -3.64474609 -43.29518799 -3.64474609 -44.03271484 -2.58740234 C-65.47499363 27.98705782 -87.61762976 57.88811677 -118.54492188 79.56884766 C-120.06859375 80.67679688 -120.06859375 80.67679688 -121.62304688 81.80712891 C-131.61976293 88.70486298 -142.49876598 90.92029221 -154.44726562 89.13525391 C-162.29493212 87.50916085 -168.11555651 84.25839849 -174.54492188 79.56884766 C-175.58648437 78.81216797 -176.62804687 78.05548828 -177.70117188 77.27587891 C-185.43640012 71.53874421 -192.60861024 65.2447448 -199.54492188 58.56884766 C-200.17333984 57.96766113 -200.80175781 57.36647461 -201.44921875 56.74707031 C-210.64027807 47.90968438 -219.02759864 38.86848748 -226.54492188 28.56884766 C-227.04024414 27.89128418 -227.53556641 27.2137207 -228.04589844 26.515625 C-230.75548978 22.79689214 -233.44461086 19.06397296 -236.12304688 15.32275391 C-240.31202094 9.48184158 -244.59066736 3.70752127 -248.8762207 -2.06274414 C-251.2864242 -5.31797884 -253.65248535 -8.55679704 -255.82226562 -11.97802734 C-256.39074219 -12.78755859 -256.95921875 -13.59708984 -257.54492188 -14.43115234 C-260.60269463 -14.43115234 -262.22010842 -12.68999277 -264.66992188 -10.93115234 Z M-277.54492188 -0.43115234 C-315.72631565 33.36877002 -342.93584996 81.32650137 -346.41601562 132.98242188 C-347.48934952 154.51821602 -346.43939445 175.54389591 -341.54492188 196.56884766 C-334.03560732 194.65157586 -326.78688429 192.32835751 -319.54492188 189.56884766 C-319.74408203 187.90208984 -319.74408203 187.90208984 -319.94726562 186.20166016 C-320.12569919 184.69906171 -320.30408185 183.19645721 -320.48242188 181.69384766 C-320.56943359 180.96681641 -320.65644531 180.23978516 -320.74609375 179.49072266 C-321.01923814 177.18417002 -321.28350579 174.87675792 -321.54492188 172.56884766 C-321.63757324 171.77406006 -321.73022461 170.97927246 -321.82568359 170.16040039 C-326.77687694 125.00426357 -314.21904676 77.90229979 -285.84423828 42.18115234 C-278.97405924 33.65603728 -272.07595791 25.50570019 -263.54492188 18.56884766 C-265.3547405 14.48647268 -267.95669475 10.99377323 -270.54492188 7.38134766 C-270.99609375 6.74003906 -271.44726562 6.09873047 -271.91210938 5.43798828 C-274.23980378 1.97372664 -274.23980378 1.97372664 -277.54492188 -0.43115234 Z M-16.54492188 -0.43115234 C-21.05039432 5.12522435 -25.45909561 10.6954724 -29.54492188 16.56884766 C-28.16805949 19.76538243 -26.68248291 21.52288949 -23.98242188 23.69384766 C7.91255428 50.95890792 25.40765113 94.59552594 29.22802734 135.58203125 C30.31941423 149.93904977 29.66564934 163.95562057 27.43505859 178.17236328 C27.29600098 179.07019531 27.15694336 179.96802734 27.01367188 180.89306641 C26.81729126 182.07002075 26.81729126 182.07002075 26.61694336 183.27075195 C26.43344799 185.87594331 26.84241157 188.04016502 27.45507812 190.56884766 C30.57860039 191.57350495 33.70412665 192.57177693 36.83007812 193.56884766 C37.71953125 193.85501953 38.60898437 194.14119141 39.52539062 194.43603516 C40.37617188 194.70673828 41.22695313 194.97744141 42.10351562 195.25634766 C42.88903809 195.50771484 43.67456055 195.75908203 44.48388672 196.01806641 C46.43499918 196.65855025 46.43499918 196.65855025 48.45507812 196.56884766 C49.10775891 193.11177127 49.75092778 189.65298689 50.39257812 186.19384766 C50.57498047 185.22833984 50.75738281 184.26283203 50.9453125 183.26806641 C60.12375651 133.53758793 47.89277702 80.19254979 19.45507812 38.56884766 C4.29715284 15.97392076 4.29715284 15.97392076 -16.54492188 -0.43115234 Z M-261.92773438 28.58837891 C-285.63715786 52.73686579 -302.98638352 81.40502819 -310.54492188 114.56884766 C-310.70863281 115.25720703 -310.87234375 115.94556641 -311.04101562 116.65478516 C-315.76919619 137.36499755 -316.68804071 165.08239173 -310.54492188 185.56884766 C-308.50998609 186.85963087 -308.50998609 186.85963087 -305.97314453 185.90722656 C-304.89597168 185.54032715 -303.81879883 185.17342773 -302.70898438 184.79541016 C-301.50951172 184.38758301 -300.31003906 183.97975586 -299.07421875 183.55957031 C-297.77235496 183.10556487 -296.47093152 182.65029499 -295.16992188 182.19384766 C-294.51354736 181.96509949 -293.85717285 181.73635132 -293.1809082 181.50067139 C-247.70846965 165.6434226 -247.70846965 165.6434226 -214.16992188 133.38134766 C-208.83078477 121.98345062 -211.54985029 110.97085644 -215.49658203 99.65209961 C-222.26666569 81.01357691 -230.79798442 62.53788604 -242.30224609 46.32519531 C-243.24596077 44.99138719 -244.18093754 43.65139159 -245.11181641 42.30859375 C-246.84873361 39.80366201 -248.60094856 37.31009775 -250.35742188 34.81884766 C-251.20288574 33.60080444 -251.20288574 33.60080444 -252.06542969 32.3581543 C-252.60135742 31.60783936 -253.13728516 30.85752441 -253.68945312 30.08447266 C-254.16745361 29.40674805 -254.6454541 28.72902344 -255.13793945 28.03076172 C-255.60224365 27.54833008 -256.06654785 27.06589844 -256.54492188 26.56884766 C-259.68407441 26.2455683 -259.68407441 26.2455683 -261.92773438 28.58837891 Z M-36.54492188 26.56884766 C-38.01406151 27.98967146 -38.01406151 27.98967146 -39.33007812 29.94384766 C-39.85553223 30.67321533 -40.38098633 31.40258301 -40.92236328 32.15405273 C-41.47843262 32.95093506 -42.03450195 33.74781738 -42.60742188 34.56884766 C-43.18669434 35.38828857 -43.7659668 36.20772949 -44.36279297 37.05200195 C-61.29067919 61.20770842 -84.42764953 94.91705992 -81.54492188 125.56884766 C-78.27674154 139.50264644 -66.39838937 147.93016965 -54.92675781 155.23632812 C-32.1398332 169.31564249 -8.92883326 178.4933047 16.45507812 186.56884766 C20.51249328 175.09021381 20.86351304 163.24409542 20.83007812 151.19384766 C20.8295343 150.45206268 20.82899048 149.71027771 20.82843018 148.9460144 C20.67244184 102.41469365 1.17517406 62.70851578 -30.54492188 29.56884766 C-31.09148437 28.95396484 -31.63804687 28.33908203 -32.20117188 27.70556641 C-33.63331461 26.24592628 -33.63331461 26.24592628 -36.54492188 26.56884766 Z M-286.25146484 212.85107422 C-287.92181102 213.37383532 -289.6054593 213.85464489 -291.29541016 214.31005859 C-292.20403809 214.55788086 -293.11266602 214.80570312 -294.04882812 215.06103516 C-294.88357666 215.27872559 -295.7183252 215.49641602 -296.57836914 215.72070312 C-297.55181274 216.14053467 -297.55181274 216.14053467 -298.54492188 216.56884766 C-299.95117228 219.67845537 -299.95117228 219.67845537 -298.06054688 223.01806641 C-297.31942516 224.43826717 -296.56306971 225.85058077 -295.79492188 227.25634766 C-295.18245605 228.3882251 -295.18245605 228.3882251 -294.55761719 229.54296875 C-272.05953343 270.26874527 -235.0066437 299.42671138 -190.47070312 312.50634766 C-181.3022263 315.0664808 -172.00828312 316.60733685 -162.54492188 317.56884766 C-162.10588266 288.11269328 -164.23725479 259.92418676 -172.54492188 231.50634766 C-172.76954102 230.7282373 -172.99416016 229.95012695 -173.22558594 229.1484375 C-176.17360481 219.63889982 -180.90793575 210.75787243 -189.52539062 205.31884766 C-196.71995854 201.53369781 -203.61693745 200.22564366 -211.66992188 200.31884766 C-212.54173096 200.32634033 -213.41354004 200.33383301 -214.31176758 200.34155273 C-238.90730492 200.73538055 -262.89045794 205.21935832 -286.25146484 212.85107422 Z M-111.73242188 212.69384766 C-132.53609027 238.82460095 -130.76477524 286.30908082 -130.54492188 317.56884766 C-83.83128964 310.93138861 -42.78300429 290.42084324 -13.54492188 252.56884766 C-8.42094288 245.68073056 -3.84381145 238.58887191 0.39257812 231.13134766 C0.77027344 230.46917236 1.14796875 229.80699707 1.53710938 229.12475586 C3.62726472 225.36161806 5.22956465 221.72019436 6.45507812 217.56884766 C-22.75783099 204.21668698 -85.95339439 185.79969684 -111.73242188 212.69384766 Z M15.45507812 220.56884766 C14.95878906 221.58462891 14.4625 222.60041016 13.95117188 223.64697266 C-7.7247762 267.71942874 -42.01108821 301.38015604 -89.05175781 317.42382812 C-102.66425987 321.85089137 -116.42471251 324.31654432 -130.54492188 326.56884766 C-130.54492188 334.15884766 -130.54492188 341.74884766 -130.54492188 349.56884766 C-82.26847082 349.56884766 -36.28378098 322.7640462 -2.66992188 289.94384766 C10.06027451 276.91278991 37.45507812 247.16887456 37.45507812 227.56884766 C34.16518727 226.3971301 30.8728871 225.23233678 27.58007812 224.06884766 C26.64292969 223.73498047 25.70578125 223.40111328 24.74023438 223.05712891 C23.39638672 222.58339844 23.39638672 222.58339844 22.02539062 222.10009766 C20.78426514 221.66020508 20.78426514 221.66020508 19.51806641 221.21142578 C17.49695028 220.46971864 17.49695028 220.46971864 15.45507812 220.56884766 Z M-315.11523438 222.10009766 C-316.01113281 222.41591797 -316.90703125 222.73173828 -317.83007812 223.05712891 C-318.76722656 223.39099609 -319.704375 223.72486328 -320.66992188 224.06884766 C-321.61480469 224.40271484 -322.5596875 224.73658203 -323.53320312 225.08056641 C-325.87144205 225.90721653 -328.2086151 226.73675572 -330.54492188 227.56884766 C-322.7624269 252.6410442 -305.26189697 273.74117534 -287.54492188 292.56884766 C-286.92875 293.22755859 -286.31257813 293.88626953 -285.67773438 294.56494141 C-256.22349413 325.07615199 -212.44230121 344.99016813 -170.54492188 349.56884766 C-167.90492188 349.56884766 -165.26492187 349.56884766 -162.54492188 349.56884766 C-162.54492188 341.97884766 -162.54492188 334.38884766 -162.54492188 326.56884766 C-165.90679687 326.03259766 -169.26867187 325.49634766 -172.73242188 324.94384766 C-203.51934678 319.69525319 -232.15220577 308.35369269 -256.54492188 288.56884766 C-257.09744629 288.1231543 -257.6499707 287.67746094 -258.21923828 287.21826172 C-280.12518252 269.42235385 -297.78217504 246.79596232 -308.54492188 220.56884766 C-311.01880117 220.56884766 -312.78027807 221.27251821 -315.11523438 222.10009766 Z " fill="#2462EB" transform="translate(402.544921875,105.43115234375)"/>
<path d="M0 0 C8.74162371 6.94539966 15.20222961 17.97043574 17 29 C17.35128086 33.35885118 17.64285691 37.66386713 17 42 C13.47320901 44.35119399 11.97120515 44.21443452 7.8125 44.125 C6.72582031 44.10695313 5.63914062 44.08890625 4.51953125 44.0703125 C3.68808594 44.04710937 2.85664063 44.02390625 2 44 C1.9071875 45.7015625 1.9071875 45.7015625 1.8125 47.4375 C0.65117197 56.33578369 -5.04966733 63.60851091 -12 69 C-17.23461287 72.02476929 -21.86235791 74.35388207 -28 74 C-27.97679687 74.91523438 -27.95359375 75.83046875 -27.9296875 76.7734375 C-27.91164063 77.96195312 -27.89359375 79.15046875 -27.875 80.375 C-27.85179687 81.55835938 -27.82859375 82.74171875 -27.8046875 83.9609375 C-28 87 -28 87 -30 89 C-43.69119259 90.75737696 -55.17377692 86.06390625 -66 78 C-74.64822802 71.12880514 -81.44311132 59.98162552 -83 49 C-84.40895106 31.44290434 -81.56638733 18.04045302 -70.4140625 4.00390625 C-51.75525958 -16.42975842 -21.03903331 -15.67091229 0 0 Z M-64.40234375 11.88671875 C-71.42565511 21.17672229 -75.31095758 32.36525149 -74 44 C-71.29508114 56.6332006 -65.69433264 66.52371883 -55 74 C-49.46057578 76.90361677 -44.35029908 79.37082038 -38 79 C-37.96261719 78.22914063 -37.92523438 77.45828125 -37.88671875 76.6640625 C-37.82097656 75.66117187 -37.75523437 74.65828125 -37.6875 73.625 C-37.62949219 72.62726563 -37.57148438 71.62953125 -37.51171875 70.6015625 C-37.25841797 69.31378906 -37.25841797 69.31378906 -37 68 C-34.01563571 66.01042381 -32.67645551 65.64641714 -29.25 65.125 C-20.59584704 63.49998438 -14.91193184 59.19660765 -9.875 51.9375 C-7.56525384 47.72010923 -6.64879013 43.13924496 -5.61328125 38.4765625 C-5 36 -5 36 -4 35 C-2.15108054 34.76636119 -0.29511969 34.58696365 1.5625 34.4375 C2.57441406 34.35371094 3.58632813 34.26992187 4.62890625 34.18359375 C5.80259766 34.09271484 5.80259766 34.09271484 7 34 C6.64306284 24.71963379 2.62843145 16.40877822 -3.6875 9.625 C-12.69467222 1.37415522 -23.27162732 -2.56522033 -35.3984375 -2.24609375 C-46.54247958 -1.19192761 -56.72137613 3.69731829 -64.40234375 11.88671875 Z " fill="#2462EB" transform="translate(289,217)"/>
<path d="M0 0 C4.25662554 3.08107639 7.4684332 7.12763904 8.75390625 12.26953125 C9.52614078 19.12459776 8.85521494 24.60341555 4.75390625 30.26953125 C0.1821785 35.19196688 -4.4258837 37.33061673 -11.05859375 37.64453125 C-16.93937652 37.50451261 -21.44629977 35.86984882 -25.78125 31.84375 C-30.5129015 26.5051228 -31.72452185 21.80101126 -31.55859375 14.83203125 C-30.884261 9.30250271 -28.4552296 5.06971496 -24.30859375 1.39453125 C-16.69320478 -3.8896162 -8.21243567 -4.69519049 0 0 Z M-20.24609375 11.26953125 C-21.84696002 14.47126379 -21.74526464 17.79530184 -21.24609375 21.26953125 C-19.45245464 24.07956585 -18.2272844 25.77893593 -15.24609375 27.26953125 C-9.43263428 27.80318638 -9.43263428 27.80318638 -4.30859375 25.39453125 C-1.14914017 22.13933665 -0.91188132 19.84539887 -0.953125 15.30859375 C-1.40864342 12.13818558 -2.99925032 10.45029105 -5.24609375 8.26953125 C-10.96481483 5.41017071 -16.02379462 6.91928366 -20.24609375 11.26953125 Z " fill="#2462EB" transform="translate(267.24609375,238.73046875)"/>
<path d="M0 0 C0.99 0.103125 1.98 0.20625 3 0.3125 C5.50304984 4.06707477 5.28870257 7.02815098 5.265625 11.375 C5.26753845 12.16269775 5.2694519 12.95039551 5.27142334 13.76196289 C5.27278347 15.42627278 5.26909899 17.09059334 5.26074219 18.75488281 C5.25004 21.30297669 5.26064301 23.85036556 5.2734375 26.3984375 C5.27211587 28.01562656 5.26955342 29.63281517 5.265625 31.25 C5.26967346 32.01256104 5.27372192 32.77512207 5.27789307 33.56079102 C5.24430937 37.34748674 5.1523449 39.08398266 3 42.3125 C0 42.625 0 42.625 -3 42.3125 C-5.60305892 39.70944108 -5.24824978 37.88971461 -5.27789307 34.34350586 C-5.2738446 33.52889893 -5.26979614 32.71429199 -5.265625 31.875 C-5.26753845 31.03912354 -5.2694519 30.20324707 -5.27142334 29.34204102 C-5.27278536 27.57340189 -5.26908776 25.80475277 -5.26074219 24.03613281 C-5.25004275 21.32334006 -5.26063676 18.61120956 -5.2734375 15.8984375 C-5.27211591 14.1822902 -5.26955352 12.46614331 -5.265625 10.75 C-5.26967346 9.93539307 -5.27372192 9.12078613 -5.27789307 8.28149414 C-5.21320619 0.54304231 -5.21320619 0.54304231 0 0 Z " fill="#2462EA" transform="translate(396,234.6875)"/>
<path d="M0 0 C1.2219104 0.00607269 1.2219104 0.00607269 2.46850586 0.01226807 C3.30438232 0.01035461 4.14025879 0.00844116 5.00146484 0.00646973 C6.77010397 0.00510771 8.53875309 0.0088053 10.30737305 0.01715088 C13.02016579 0.02785031 15.7322963 0.01725631 18.44506836 0.00445557 C20.16121566 0.00577716 21.87736255 0.00833955 23.59350586 0.01226807 C24.40811279 0.0082196 25.22271973 0.00417114 26.06201172 0 C31.80108658 0.04797379 31.80108658 0.04797379 34.03100586 2.27789307 C34.34350586 5.27789307 34.34350586 5.27789307 34.03100586 8.27789307 C30.27643109 10.78094291 27.31535487 10.56659563 22.96850586 10.54351807 C21.78695923 10.54638824 21.78695923 10.54638824 20.58154297 10.54931641 C18.91723308 10.55067654 17.25291252 10.54699206 15.58862305 10.53863525 C13.04052917 10.52793307 10.4931403 10.53853608 7.94506836 10.55133057 C6.3278793 10.55000894 4.71069068 10.54744648 3.09350586 10.54351807 C2.33094482 10.54756653 1.56838379 10.55161499 0.78271484 10.55578613 C-3.00398089 10.52220244 -4.7404768 10.43023796 -7.96899414 8.27789307 C-8.28149414 5.27789307 -8.28149414 5.27789307 -7.96899414 2.27789307 C-5.36593522 -0.32516585 -3.54620875 0.02964329 0 0 Z " fill="#2463EB" transform="translate(242.968994140625,151.72210693359375)"/>
<path d="M0 0 C1.18154663 -0.00287018 1.18154663 -0.00287018 2.38696289 -0.00579834 C4.05127278 -0.00715847 5.71559334 -0.00347399 7.37988281 0.00488281 C9.92797669 0.015585 12.47536556 0.00498199 15.0234375 -0.0078125 C16.64062656 -0.00649087 18.25781517 -0.00392842 19.875 0 C21.01884155 -0.00607269 21.01884155 -0.00607269 22.18579102 -0.01226807 C25.97248674 0.02131563 27.70898266 0.1132801 30.9375 2.265625 C31.25 5.265625 31.25 5.265625 30.9375 8.265625 C28.33444108 10.86868392 26.51471461 10.51387478 22.96850586 10.54351807 C22.15389893 10.5394696 21.33929199 10.53542114 20.5 10.53125 C19.66412354 10.53316345 18.82824707 10.5350769 17.96704102 10.53704834 C16.19840189 10.53841036 14.42975277 10.53471276 12.66113281 10.52636719 C9.94834006 10.51566775 7.23620956 10.52626176 4.5234375 10.5390625 C2.8072902 10.53774091 1.09114331 10.53517852 -0.625 10.53125 C-1.8469104 10.53732269 -1.8469104 10.53732269 -3.09350586 10.54351807 C-8.83258072 10.49554428 -8.83258072 10.49554428 -11.0625 8.265625 C-11.375 5.265625 -11.375 5.265625 -11.0625 2.265625 C-7.30792523 -0.23742484 -4.34684902 -0.02307757 0 0 Z " fill="#2462EB" transform="translate(246.0625,110.734375)"/>
<path d="M0 0 C3 -0.375 3 -0.375 6 0 C8.54078897 3.81118345 8.28832297 6.90083173 8.265625 11.31640625 C8.26753845 12.12867172 8.2694519 12.94093719 8.27142334 13.77781677 C8.27278347 15.49340119 8.26909904 17.20899595 8.26074219 18.92456055 C8.25002622 21.55606069 8.2606502 24.18688029 8.2734375 26.81835938 C8.27211615 28.48437651 8.26955425 30.15039322 8.265625 31.81640625 C8.26967346 32.60600235 8.27372192 33.39559845 8.27789307 34.2091217 C8.22992975 39.77007025 8.22992975 39.77007025 6 42 C3 42.3125 3 42.3125 0 42 C-2.50304984 38.24542523 -2.28870257 35.28434902 -2.265625 30.9375 C-2.26753845 30.14980225 -2.2694519 29.36210449 -2.27142334 28.55053711 C-2.27278347 26.88622722 -2.26909899 25.22190666 -2.26074219 23.55761719 C-2.25004 21.00952331 -2.26064301 18.46213444 -2.2734375 15.9140625 C-2.27211587 14.29687344 -2.26955342 12.67968483 -2.265625 11.0625 C-2.26967346 10.29993896 -2.27372192 9.53737793 -2.27789307 8.75170898 C-2.24430937 4.96501326 -2.1523449 3.22851734 0 0 Z " fill="#2462EA" transform="translate(113,235)"/>
<path d="M0 0 C5.12066863 -0.75042295 8.21400458 0.8366391 12.60546875 3.359375 C13.2113533 3.70502502 13.81723785 4.05067505 14.44148254 4.40679932 C15.7148051 5.13707563 16.98451949 5.87367567 18.25073242 6.61621094 C20.18350696 7.74766246 22.12841758 8.85551508 24.07617188 9.9609375 C34.8514195 16.1736145 34.8514195 16.1736145 37 20 C36.5 22.6875 36.5 22.6875 35 25 C31.82950605 26.16490453 30.39278971 26.15728915 27.23266602 24.8918457 C26.24967529 24.32554443 25.26668457 23.75924316 24.25390625 23.17578125 C23.16916016 22.55896484 22.08441406 21.94214844 20.96679688 21.30664062 C19.84337891 20.64857422 18.71996094 19.99050781 17.5625 19.3125 C16.44294922 18.67376953 15.32339844 18.03503906 14.16992188 17.37695312 C-0.66251422 8.86480731 -0.66251422 8.86480731 -2 5.4375 C-2 3 -2 3 0 0 Z " fill="#2462EB" transform="translate(189,329)"/>
<path d="M0 0 C3.39075766 1.05339498 6.18553998 2.60185975 9.2644043 4.37280273 C9.87407547 4.72178116 10.48374664 5.07075958 11.1118927 5.43031311 C12.39371928 6.16589143 13.6736142 6.90484505 14.95166016 7.64697266 C16.90887198 8.78292209 18.87214778 9.90775566 20.83666992 11.03100586 C30.42048542 16.54450886 30.42048542 16.54450886 32.72143555 18.84545898 C32.97143555 21.34545898 32.97143555 21.34545898 32.72143555 23.84545898 C30.72143555 25.84545898 30.72143555 25.84545898 28.01147461 26.18481445 C23.97678519 25.76865103 21.58091349 24.45458395 18.08081055 22.41577148 C17.47255432 22.06537811 16.8642981 21.71498474 16.23760986 21.35397339 C14.30831468 20.23808513 12.39022782 19.10429078 10.47143555 17.97045898 C9.16739381 17.21543631 7.86271181 16.4615183 6.55737305 15.70874023 C-2.91676442 10.20725902 -2.91676442 10.20725902 -5.27856445 7.84545898 C-5.59106445 4.84545898 -5.59106445 4.84545898 -5.27856445 1.84545898 C-2.27856445 -0.15454102 -2.27856445 -0.15454102 0 0 Z " fill="#2461EB" transform="translate(179.278564453125,352.154541015625)"/>
<path d="M0 0 C2 3 2 3 2.10546875 5.38671875 C0.37388698 9.48010463 -2.8836191 10.76006103 -6.6875 12.8125 C-8.23831628 13.67962485 -9.78909698 14.54681334 -11.33984375 15.4140625 C-12.12085449 15.84364258 -12.90186523 16.27322266 -13.70654297 16.71582031 C-15.8571483 17.92001278 -17.96476803 19.17362555 -20.06640625 20.4609375 C-20.6900708 20.83758545 -21.31373535 21.2142334 -21.95629883 21.60229492 C-23.65568424 22.63043813 -25.35139206 23.66465274 -27.046875 24.69921875 C-30 26 -30 26 -32.80859375 25.8671875 C-35 25 -35 25 -36.3125 22.4375 C-36.539375 21.633125 -36.76625 20.82875 -37 20 C-32.19082107 14.88062268 -26.89644435 11.68806223 -20.84399414 8.21411133 C-19.06183793 7.18711847 -17.2937529 6.138415 -15.52539062 5.08789062 C-14.39423828 4.43369141 -13.26308594 3.77949219 -12.09765625 3.10546875 C-11.07164307 2.50887451 -10.04562988 1.91228027 -8.98852539 1.29760742 C-5.68153563 -0.13827613 -3.56467786 -0.4957373 0 0 Z " fill="#2462EB" transform="translate(323,329)"/>
<path d="M0 0 C3.05498405 1.06317511 3.7471979 2.02299654 5.40869141 4.75878906 C5.91174805 5.57283203 6.41480469 6.386875 6.93310547 7.22558594 C7.4484082 8.09763672 7.96371094 8.9696875 8.49462891 9.86816406 C9.02282227 10.73505859 9.55101562 11.60195312 10.09521484 12.49511719 C11.71798645 15.18563118 13.29783427 17.89760101 14.86962891 20.61816406 C15.41490234 21.53726563 15.96017578 22.45636719 16.52197266 23.40332031 C17.03630859 24.2940625 17.55064453 25.18480469 18.08056641 26.10253906 C18.77738525 27.2970166 18.77738525 27.2970166 19.48828125 28.515625 C20.63493286 31.19615264 20.83682675 32.98158898 20.49462891 35.86816406 C18.49462891 37.86816406 18.49462891 37.86816406 15.67431641 38.46972656 C12.49462891 37.86816406 12.49462891 37.86816406 11.19873047 36.4921875 C9.88460852 34.4593213 8.74081747 32.38856363 7.61962891 30.24316406 C6.7602703 28.6832592 5.90089504 27.12336351 5.04150391 25.56347656 C4.61804688 24.77618164 4.19458984 23.98888672 3.75830078 23.17773438 C2.57690748 21.01854182 1.34398865 18.90509536 0.07275391 16.79785156 C-0.29994629 16.17475098 -0.67264648 15.55165039 -1.05664062 14.90966797 C-2.07325926 13.21345434 -3.09009011 11.51736791 -4.10693359 9.82128906 C-5.53311357 6.80957939 -6.08889417 5.14046997 -5.50537109 1.86816406 C-2.50537109 -0.13183594 -2.50537109 -0.13183594 0 0 Z " fill="#2462EB" transform="translate(381.50537109375,160.1318359375)"/>
<path d="M0 0 C2 3 2 3 1.86816406 5.50537109 C0.80498895 8.56035514 -0.15483248 9.25256899 -2.890625 10.9140625 C-3.70466797 11.41711914 -4.51871094 11.92017578 -5.35742188 12.43847656 C-6.22947266 12.9537793 -7.10152344 13.46908203 -8 14 C-8.86689453 14.52819336 -9.73378906 15.05638672 -10.62695312 15.60058594 C-13.31746712 17.22335754 -16.02943694 18.80320537 -18.75 20.375 C-19.66910156 20.92027344 -20.58820313 21.46554687 -21.53515625 22.02734375 C-22.87126953 22.79884766 -22.87126953 22.79884766 -24.234375 23.5859375 C-25.42885254 24.28275635 -25.42885254 24.28275635 -26.64746094 24.99365234 C-29.32798858 26.14030396 -31.11342492 26.34219784 -34 26 C-36 24 -36 24 -36.6015625 21.1796875 C-36 18 -36 18 -34.62402344 16.70410156 C-32.59115724 15.38997962 -30.52039957 14.24618856 -28.375 13.125 C-26.81509514 12.26564139 -25.25519945 11.40626613 -23.6953125 10.546875 C-22.90801758 10.12341797 -22.12072266 9.69996094 -21.30957031 9.26367188 C-19.15037776 8.08227857 -17.0369313 6.84935974 -14.9296875 5.578125 C-14.30658691 5.2054248 -13.68348633 4.83272461 -13.04150391 4.44873047 C-11.34529028 3.43211183 -9.64920385 2.41528098 -7.953125 1.3984375 C-4.94141533 -0.02774248 -3.2723059 -0.58352308 0 0 Z " fill="#2462EB" transform="translate(350,376)"/>
<path d="M0 0 C2.875 0.6875 2.875 0.6875 3.875 1.6875 C3.82421875 4.99072266 3.82421875 4.99072266 2.875 8.6875 C0.74030129 10.48581958 -0.88831751 11.58921623 -3.3125 12.8359375 C-3.93020264 13.17879791 -4.54790527 13.52165833 -5.18432617 13.87490845 C-7.15270421 14.96100336 -9.13746547 16.01194603 -11.125 17.0625 C-12.46219161 17.79067044 -13.79814672 18.52111648 -15.1328125 19.25390625 C-17.56707354 20.58945218 -20.00785813 21.90779504 -22.45703125 23.21630859 C-24.97234293 24.44225689 -24.97234293 24.44225689 -26.125 25.6875 C-29.0625 25.875 -29.0625 25.875 -32.125 25.6875 C-34.125 23.6875 -34.125 23.6875 -34.5625 21.3125 C-33.94202446 17.58964679 -32.13457275 16.86482682 -29.125 14.6875 C-27.34371995 13.59374314 -25.53750375 12.53976345 -23.7109375 11.5234375 C-22.70289063 10.95882813 -21.69484375 10.39421875 -20.65625 9.8125 C-19.6146875 9.235 -18.573125 8.6575 -17.5 8.0625 C-15.42394545 6.90460225 -13.34840117 5.74578899 -11.2734375 4.5859375 C-10.35739746 4.07724121 -9.44135742 3.56854492 -8.49755859 3.04443359 C-2.70201614 -0.27020161 -2.70201614 -0.27020161 0 0 Z " fill="#2462EB" transform="translate(341.125,364.3125)"/>
<path d="M0 0 C1 1 1 1 1.625 3.6875 C1 7 1 7 -0.65405273 8.41186523 C-1.38567627 8.87278564 -2.1172998 9.33370605 -2.87109375 9.80859375 C-3.68868164 10.32687744 -4.50626953 10.84516113 -5.34863281 11.37915039 C-6.22358398 11.91403076 -7.09853516 12.44891113 -8 13 C-8.86206055 13.53036865 -9.72412109 14.0607373 -10.61230469 14.60717773 C-13.28743482 16.22650411 -15.98327923 17.8048073 -18.6875 19.375 C-19.59822266 19.92027344 -20.50894531 20.46554687 -21.44726562 21.02734375 C-29.96993389 25.9664064 -29.96993389 25.9664064 -35 25 C-37 23 -37 23 -37.36035156 20.55493164 C-37 18 -37 18 -35.44433594 16.44311523 C-34.35040527 15.7887146 -34.35040527 15.7887146 -33.234375 15.12109375 C-32.41130859 14.61819824 -31.58824219 14.11530273 -30.74023438 13.59716797 C-29.83595703 13.07010254 -28.93167969 12.54303711 -28 12 C-27.06994141 11.43555176 -26.13988281 10.87110352 -25.18164062 10.28955078 C-22.22447317 8.51039762 -19.24196413 6.7823968 -16.25 5.0625 C-15.23550781 4.46115234 -14.22101563 3.85980469 -13.17578125 3.24023438 C-12.19480469 2.67755859 -11.21382813 2.11488281 -10.203125 1.53515625 C-9.32301758 1.023479 -8.44291016 0.51180176 -7.53613281 -0.01538086 C-4.53732405 -1.17962766 -3.02683145 -0.97536374 0 0 Z " fill="#2462EB" transform="translate(337,353)"/>
<path d="M0 0 C3.3125 0.625 3.3125 0.625 4.72436523 2.27905273 C5.18528564 3.01067627 5.64620605 3.7422998 6.12109375 4.49609375 C6.89851929 5.72247559 6.89851929 5.72247559 7.69165039 6.97363281 C8.22653076 7.84858398 8.76141113 8.72353516 9.3125 9.625 C9.84286865 10.48706055 10.3732373 11.34912109 10.91967773 12.23730469 C12.53900411 14.91243482 14.1173073 17.60827923 15.6875 20.3125 C16.23277344 21.22322266 16.77804687 22.13394531 17.33984375 23.07226562 C22.2789064 31.59493389 22.2789064 31.59493389 21.3125 36.625 C19.3125 38.625 19.3125 38.625 16.86743164 38.98535156 C14.3125 38.625 14.3125 38.625 12.75561523 37.06933594 C12.1012146 35.97540527 12.1012146 35.97540527 11.43359375 34.859375 C10.93069824 34.03630859 10.42780273 33.21324219 9.90966797 32.36523438 C9.38260254 31.46095703 8.85553711 30.55667969 8.3125 29.625 C7.74805176 28.69494141 7.18360352 27.76488281 6.60205078 26.80664062 C4.82289762 23.84947317 3.0948968 20.86696413 1.375 17.875 C0.77365234 16.86050781 0.17230469 15.84601563 -0.44726562 14.80078125 C-1.00994141 13.81980469 -1.57261719 12.83882812 -2.15234375 11.828125 C-2.664021 10.94801758 -3.17569824 10.06791016 -3.70288086 9.16113281 C-4.86712766 6.16232405 -4.66286374 4.65183145 -3.6875 1.625 C-2.6875 0.625 -2.6875 0.625 0 0 Z " fill="#2462EB" transform="translate(356.6875,173.375)"/>
<path d="M0 0 C3.30322266 0.05078125 3.30322266 0.05078125 7 1 C8.79831958 3.13469871 9.90171623 4.76331751 11.1484375 7.1875 C11.49129791 7.80520264 11.83415833 8.42290527 12.18740845 9.05932617 C13.27350336 11.02770421 14.32444603 13.01246547 15.375 15 C16.10317044 16.33719161 16.83361648 17.67314672 17.56640625 19.0078125 C18.90195218 21.44207354 20.22029504 23.88285813 21.52880859 26.33203125 C22.75475689 28.84734293 22.75475689 28.84734293 24 30 C24.1875 32.9375 24.1875 32.9375 24 36 C22 38 22 38 19.625 38.4375 C15.89590172 37.81598362 15.1920717 36.01671929 13 33 C10.63810901 29.3436741 8.43096362 25.60181444 6.23461914 21.84399414 C5.53500962 20.65372819 4.82791828 19.46782916 4.11352539 18.28637695 C3.07371301 16.56654968 2.05800925 14.83221913 1.04296875 13.09765625 C0.43477295 12.07164307 -0.17342285 11.04562988 -0.80004883 9.98852539 C-2.21083953 6.4748959 -2.01201876 4.60525529 -1 1 C-0.67 0.67 -0.34 0.34 0 0 Z " fill="#2462EB" transform="translate(366,167)"/>
<path d="M0 0 C3.2355957 1.56640625 3.2355957 1.56640625 6.67578125 3.5625 C7.28640915 3.9138501 7.89703705 4.2652002 8.52616882 4.62719727 C10.46002887 5.74294115 12.38612094 6.87139968 14.3125 8 C15.6251847 8.75862001 16.93833162 9.51644082 18.25195312 10.2734375 C27.79239798 15.79239798 27.79239798 15.79239798 29 17 C29.1875 19.9375 29.1875 19.9375 29 23 C27 25 27 25 24.1328125 25.05078125 C18.13190996 23.9895134 13.01023883 20.28420463 7.875 17.1875 C6.80378906 16.55779297 5.73257813 15.92808594 4.62890625 15.27929688 C-0.1781571 12.42678668 -4.68776537 9.57172524 -9 6 C-8.625 3.0625 -8.625 3.0625 -8 0 C-5.02847844 -1.48576078 -3.20304322 -0.76388483 0 0 Z " fill="#2462EB" transform="translate(169,377)"/>
<path d="M0 0 C2.8626766 1.38274741 5.54617382 3.01895662 8.25 4.6875 C9.37063843 5.36425781 9.37063843 5.36425781 10.51391602 6.0546875 C11.99934149 6.95247036 13.4825623 7.85391273 14.96337891 8.75927734 C17.60456242 10.36830331 20.27193516 11.93179178 22.9375 13.5 C25.31962018 14.90557348 27.03583036 16.03583036 29 18 C29.25 20.5 29.25 20.5 29 23 C27 25 27 25 24.3828125 25.41015625 C19.78007809 24.85208799 16.74989527 22.88120656 12.875 20.4375 C11.37295394 19.51341514 9.87034578 18.59024333 8.3671875 17.66796875 C7.26262207 16.98420166 7.26262207 16.98420166 6.13574219 16.28662109 C4.20317843 15.12239944 2.25405898 14.03833936 0.2578125 12.98828125 C-0.81726563 12.41464844 -1.89234375 11.84101563 -3 11.25 C-3.94875 10.76015625 -4.8975 10.2703125 -5.875 9.765625 C-8 8 -8 8 -8.87890625 4.91796875 C-9 2 -9 2 -7.9375 0.0625 C-4.97093059 -1.56432839 -3.26013731 -0.82535122 0 0 Z " fill="#2462EB" transform="translate(176,365)"/>
<path d="M0 0 C3.625 0.375 3.625 0.375 7 1 C7.99221889 4.15340239 8.14514181 5.63438798 6.90771484 8.75146484 C6.34777832 9.72809082 5.7878418 10.7047168 5.2109375 11.7109375 C4.59863281 12.79117188 3.98632812 13.87140625 3.35546875 14.984375 C2.70191406 16.10328125 2.04835937 17.2221875 1.375 18.375 C0.74464844 19.48617187 0.11429688 20.59734375 -0.53515625 21.7421875 C-6.98180797 33.00037346 -6.98180797 33.00037346 -11 38 C-13.6875 38.5625 -13.6875 38.5625 -16 38 C-18 36 -18 36 -18.33935547 33.29003906 C-17.92319205 29.25534965 -16.60912496 26.85947794 -14.5703125 23.359375 C-14.21991913 22.75111877 -13.86952576 22.14286255 -13.5085144 21.51617432 C-12.39262614 19.58687913 -11.2588318 17.66879227 -10.125 15.75 C-9.36997732 14.44595826 -8.61605932 13.14127626 -7.86328125 11.8359375 C-2.36180003 2.36180003 -2.36180003 2.36180003 0 0 Z " fill="#2462EB" transform="translate(152,174)"/>
<path d="M0 0 C0.94690758 3.59302356 1.20301937 5.49437232 -0.19995117 8.98852539 C-0.80814697 10.01453857 -1.41634277 11.04055176 -2.04296875 12.09765625 C-2.70490234 13.22880859 -3.36683594 14.35996094 -4.04882812 15.52539062 C-4.76168808 16.70444563 -5.47457897 17.88348193 -6.1875 19.0625 C-6.88230601 20.2445936 -7.57568013 21.42753007 -8.26757812 22.61132812 C-14.41425214 33.00199306 -14.41425214 33.00199306 -18 37 C-20.625 37.4375 -20.625 37.4375 -23 37 C-25 35 -25 35 -25.41015625 32.3828125 C-24.85199948 27.77934806 -22.88019393 24.75106812 -20.4375 20.875 C-19.51910921 19.37265375 -18.60114316 17.87004777 -17.68359375 16.3671875 C-17.22839355 15.63081055 -16.77319336 14.89443359 -16.30419922 14.13574219 C-13.89462853 10.18985594 -11.6498119 6.14966722 -9.375 2.125 C-6.7422123 -1.94385371 -4.35989567 -0.85302307 0 0 Z " fill="#2462EB" transform="translate(147,168)"/>
<path d="M0 0 C2.97 0.495 2.97 0.495 6 1 C7.29313868 6.03628747 6.76235672 8.37786867 4.17578125 12.84375 C3.55896484 13.92527344 2.94214844 15.00679687 2.30664062 16.12109375 C1.31954102 17.79365234 1.31954102 17.79365234 0.3125 19.5 C-0.32623047 20.61503906 -0.96496094 21.73007813 -1.62304688 22.87890625 C-3.38644399 25.93886525 -5.16250913 28.98394877 -7 32 C-7.66749268 33.10021484 -8.33498535 34.20042969 -9.02270508 35.33398438 C-11 38 -11 38 -14.125 38.5 C-17 38 -17 38 -19 36 C-19.12998208 28.66101205 -14.86259574 22.96937986 -11.1875 16.875 C-10.55779297 15.80378906 -9.92808594 14.73257813 -9.27929688 13.62890625 C-6.42678668 8.8218429 -3.57172524 4.31223463 0 0 Z " fill="#2462EB" transform="translate(129,160)"/>
<path d="M0 0 C3.140625 0.3046875 3.140625 0.3046875 4.90625 1.859375 C5.39609375 2.62507812 5.8859375 3.39078125 6.390625 4.1796875 C6.96683594 5.07945312 7.54304688 5.97921875 8.13671875 6.90625 C20.67674398 28.17295945 20.67674398 28.17295945 22.140625 34.3046875 C20.765625 36.6796875 20.765625 36.6796875 19.140625 38.3046875 C16.37792969 38.15966797 16.37792969 38.15966797 13.140625 37.3046875 C11.11425781 34.85205078 11.11425781 34.85205078 9.34375 31.625 C9.02404236 31.0564328 8.70433472 30.4878656 8.37493896 29.90206909 C7.36044631 28.08808611 6.37534761 26.25997144 5.390625 24.4296875 C4.71416214 23.2059665 4.0357953 21.98329595 3.35546875 20.76171875 C2.10784863 18.51929565 0.87447812 16.27114365 -0.35058594 14.01611328 C-1.86470385 11.20988639 -1.86470385 11.20988639 -3.859375 8.3046875 C-4.046875 4.6796875 -4.046875 4.6796875 -3.859375 1.3046875 C-2.859375 0.3046875 -2.859375 0.3046875 0 0 Z " fill="#2462EB" transform="translate(344.859375,180.6953125)"/>
<path d="M0 0 C2.8125 0.375 2.8125 0.375 3.8125 1.375 C5.12679416 8.92430567 0.82963679 14.27448206 -3 20.5 C-3.64259766 21.57121094 -4.28519531 22.64242187 -4.94726562 23.74609375 C-6.6806142 26.63081688 -8.43230921 29.50354054 -10.1875 32.375 C-10.68596436 33.29651855 -11.18442871 34.21803711 -11.69799805 35.16748047 C-13.1875 37.375 -13.1875 37.375 -16.375 38.1875 C-17.303125 38.249375 -18.23125 38.31125 -19.1875 38.375 C-20.8125 36.75 -20.8125 36.75 -22.1875 34.375 C-21.1035133 30.22140274 -19.39338194 26.65797921 -17.2890625 22.93359375 C-16.72703125 21.93779297 -16.165 20.94199219 -15.5859375 19.91601562 C-15.00070313 18.89185547 -14.41546875 17.86769531 -13.8125 16.8125 C-12.94625 15.27045898 -12.94625 15.27045898 -12.0625 13.69726562 C-4.59298819 0.54035155 -4.59298819 0.54035155 0 0 Z " fill="#2462EB" transform="translate(167.1875,180.625)"/>
<path d="M0 0 C3.5 0.125 3.5 0.125 4.5 1.125 C4.8046875 3.984375 4.8046875 3.984375 4.5 7.125 C2.9453125 8.890625 2.9453125 8.890625 0.625 10.375 C-0.27476562 10.95121094 -1.17453125 11.52742188 -2.1015625 12.12109375 C-23.36827195 24.66111898 -23.36827195 24.66111898 -29.5 26.125 C-31.875 24.75 -31.875 24.75 -33.5 23.125 C-33.38671875 20.37817383 -33.38671875 20.37817383 -32.5 17.125 C-30.39699961 15.44286911 -28.658147 14.30058878 -26.3125 13.07421875 C-25.69479736 12.72994339 -25.07709473 12.38566803 -24.44067383 12.03096008 C-22.47060527 10.93834904 -20.48634957 9.87517297 -18.5 8.8125 C-17.16299676 8.07941432 -15.82704454 7.34440829 -14.4921875 6.60742188 C-12.05696997 5.26318072 -9.61592265 3.93333755 -7.16796875 2.61206055 C-2.65150984 0.09469678 -2.65150984 0.09469678 0 0 Z " fill="#2462EB" transform="translate(326.5,340.875)"/>
<path d="M0 0 C5.02164923 0.44206408 7.95574137 2.2420577 12.13671875 4.91015625 C13.62963993 5.83425225 15.12313359 6.75742399 16.6171875 7.6796875 C17.34728027 8.13553223 18.07737305 8.59137695 18.82958984 9.06103516 C20.75418508 10.22927023 22.69537947 11.31177111 24.6875 12.359375 C25.76386719 12.93300781 26.84023437 13.50664062 27.94921875 14.09765625 C28.89796875 14.5875 29.84671875 15.07734375 30.82421875 15.58203125 C32.94921875 17.34765625 32.94921875 17.34765625 33.76171875 20.55078125 C33.82359375 21.47375 33.88546875 22.39671875 33.94921875 23.34765625 C32.32421875 24.97265625 32.32421875 24.97265625 29.94921875 26.34765625 C25.79562149 25.26366955 22.23219796 23.55353819 18.5078125 21.44921875 C17.51201172 20.8871875 16.51621094 20.32515625 15.49023438 19.74609375 C14.46607422 19.16085937 13.44191406 18.575625 12.38671875 17.97265625 C11.35869141 17.39515625 10.33066406 16.81765625 9.27148438 16.22265625 C-0.25447576 10.81452853 -0.25447576 10.81452853 -4.05078125 7.34765625 C-4.42578125 4.16015625 -4.42578125 4.16015625 -4.05078125 1.34765625 C-3.05078125 0.34765625 -3.05078125 0.34765625 0 0 Z " fill="#2462EB" transform="translate(185.05078125,340.65234375)"/>
<path d="M0 0 C3.0625 0.1875 3.0625 0.1875 5.0625 2.1875 C5.26240227 5.03290142 5.34226976 7.77887784 5.328125 10.625 C5.33003845 11.46087646 5.3319519 12.29675293 5.33392334 13.15795898 C5.33528536 14.92659811 5.33158776 16.69524723 5.32324219 18.46386719 C5.31254275 21.17665994 5.32313676 23.88879044 5.3359375 26.6015625 C5.33461591 28.3177098 5.33205352 30.03385669 5.328125 31.75 C5.33217346 32.56460693 5.33622192 33.37921387 5.34039307 34.21850586 C5.29241928 39.95758072 5.29241928 39.95758072 3.0625 42.1875 C0 42.375 0 42.375 -2.9375 42.1875 C-4.83373202 40.29126798 -4.06647626 37.52379641 -4.07644653 35.0012207 C-4.0744223 34.13456787 -4.07239807 33.26791504 -4.0703125 32.375 C-4.07126923 31.49094482 -4.07222595 30.60688965 -4.07321167 29.69604492 C-4.07389351 27.82307871 -4.07203893 25.95011014 -4.06787109 24.07714844 C-4.06252289 21.19981612 -4.06781593 18.32263992 -4.07421875 15.4453125 C-4.07355797 13.63020799 -4.07227681 11.81510357 -4.0703125 10 C-4.07233673 9.13334717 -4.07436096 8.26669434 -4.07644653 7.3737793 C-4.04832358 0.25840363 -4.04832358 0.25840363 0 0 Z " fill="#2462EB" transform="translate(101.9375,234.8125)"/>
<path d="M0 0 C1.29997925 0.00303635 1.29997925 0.00303635 2.6262207 0.00613403 C3.51027588 0.00517731 4.39433105 0.00422058 5.30517578 0.00323486 C7.178142 0.00255302 9.05111056 0.0044076 10.92407227 0.00857544 C13.80140458 0.01392364 16.67858078 0.0086306 19.5559082 0.00222778 C21.37101272 0.00288856 23.18611713 0.00416972 25.0012207 0.00613403 C25.86787354 0.0041098 26.73452637 0.00208557 27.62744141 0 C33.69877061 0.02399644 33.69877061 0.02399644 34.8137207 1.13894653 C35.0012207 4.07644653 35.0012207 4.07644653 34.8137207 7.13894653 C32.21066179 9.74200545 30.39093531 9.38719631 26.84472656 9.4168396 C26.03011963 9.41279114 25.2155127 9.40874268 24.3762207 9.40457153 C23.54034424 9.40648499 22.70446777 9.40839844 21.84326172 9.41036987 C20.07462259 9.41173189 18.30597348 9.4080343 16.53735352 9.39968872 C13.82456077 9.38898929 11.11243027 9.39958329 8.3996582 9.41238403 C6.6835109 9.41106244 4.96736402 9.40850005 3.2512207 9.40457153 C2.0293103 9.41064423 2.0293103 9.41064423 0.78271484 9.4168396 C-4.95636002 9.36886581 -4.95636002 9.36886581 -7.1862793 7.13894653 C-7.3737793 4.07644653 -7.3737793 4.07644653 -7.1862793 1.13894653 C-5.29004728 -0.75728549 -2.5225757 0.00997028 0 0 Z " fill="#2562EB" transform="translate(242.186279296875,138.86105346679688)"/>
<path d="M0 0 C1.2219104 0.00607269 1.2219104 0.00607269 2.46850586 0.01226807 C3.30438232 0.01035461 4.14025879 0.00844116 5.00146484 0.00646973 C6.77010397 0.00510771 8.53875309 0.0088053 10.30737305 0.01715088 C13.02016579 0.02785031 15.7322963 0.01725631 18.44506836 0.00445557 C20.16121566 0.00577716 21.87736255 0.00833955 23.59350586 0.01226807 C24.40811279 0.0082196 25.22271973 0.00417114 26.06201172 0 C31.80108658 0.04797379 31.80108658 0.04797379 34.03100586 2.27789307 C34.21850586 5.34039307 34.21850586 5.34039307 34.03100586 8.27789307 C32.13477384 10.17412509 29.36730226 9.40686932 26.84472656 9.4168396 C25.54474731 9.41380325 25.54474731 9.41380325 24.21850586 9.41070557 C22.8924231 9.41214066 22.8924231 9.41214066 21.53955078 9.41360474 C19.66658456 9.41428658 17.793616 9.412432 15.9206543 9.40826416 C13.04332198 9.40291596 10.16614578 9.408209 7.28881836 9.41461182 C5.47371385 9.41395104 3.65860943 9.41266987 1.84350586 9.41070557 C0.97685303 9.4127298 0.1102002 9.41475403 -0.78271484 9.4168396 C-6.85404405 9.39284316 -6.85404405 9.39284316 -7.96899414 8.27789307 C-8.15649414 5.34039307 -8.15649414 5.34039307 -7.96899414 2.27789307 C-5.36593522 -0.32516585 -3.54620875 0.02964329 0 0 Z " fill="#2562EB" transform="translate(242.968994140625,124.72210693359375)"/>
<path d="M0 0 C1.29997925 0.00303635 1.29997925 0.00303635 2.6262207 0.00613403 C3.51027588 0.00517731 4.39433105 0.00422058 5.30517578 0.00323486 C7.178142 0.00255302 9.05111056 0.0044076 10.92407227 0.00857544 C13.80140458 0.01392364 16.67858078 0.0086306 19.5559082 0.00222778 C21.37101272 0.00288856 23.18611713 0.00416972 25.0012207 0.00613403 C25.86787354 0.0041098 26.73452637 0.00208557 27.62744141 0 C33.69877061 0.02399644 33.69877061 0.02399644 34.8137207 1.13894653 C35.0012207 4.07644653 35.0012207 4.07644653 34.8137207 7.13894653 C32.21066179 9.74200545 30.39093531 9.38719631 26.84472656 9.4168396 C26.03011963 9.41279114 25.2155127 9.40874268 24.3762207 9.40457153 C23.54034424 9.40648499 22.70446777 9.40839844 21.84326172 9.41036987 C20.07462259 9.41173189 18.30597348 9.4080343 16.53735352 9.39968872 C13.82456077 9.38898929 11.11243027 9.39958329 8.3996582 9.41238403 C6.6835109 9.41106244 4.96736402 9.40850005 3.2512207 9.40457153 C2.0293103 9.41064423 2.0293103 9.41064423 0.78271484 9.4168396 C-4.95636002 9.36886581 -4.95636002 9.36886581 -7.1862793 7.13894653 C-7.3737793 4.07644653 -7.3737793 4.07644653 -7.1862793 1.13894653 C-5.29004728 -0.75728549 -2.5225757 0.00997028 0 0 Z " fill="#2462EB" transform="translate(242.186279296875,97.86105346679688)"/>
<path d="M0 0 C2.9375 0.1875 2.9375 0.1875 3.9375 1.1875 C4.02618299 4.14455321 4.05270296 7.07815056 4.03515625 10.03515625 C4.0337413 10.9215831 4.03232635 11.80800995 4.03086853 12.72129822 C4.02525215 15.56423254 4.01269691 18.40708931 4 21.25 C3.99498711 23.17252491 3.99042384 25.09505104 3.98632812 27.01757812 C3.97527741 31.74091549 3.95800183 36.46419458 3.9375 41.1875 C0.5625 41.8125 0.5625 41.8125 -3.0625 42.1875 C-5.66555892 39.58444108 -5.31074978 37.76471461 -5.34039307 34.21850586 C-5.3363446 33.40389893 -5.33229614 32.58929199 -5.328125 31.75 C-5.33003845 30.91412354 -5.3319519 30.07824707 -5.33392334 29.21704102 C-5.33528536 27.44840189 -5.33158776 25.67975277 -5.32324219 23.91113281 C-5.31254275 21.19834006 -5.32313676 18.48620956 -5.3359375 15.7734375 C-5.33461591 14.0572902 -5.33205352 12.34114331 -5.328125 10.625 C-5.33217346 9.81039307 -5.33622192 8.99578613 -5.34039307 8.15649414 C-5.27491133 0.32295375 -5.27491133 0.32295375 0 0 Z " fill="#2462EB" transform="translate(410.0625,234.8125)"/>
<path d="M0 0 C3.0625 0.1875 3.0625 0.1875 5.0625 2.1875 C5.27455956 4.96067359 5.36647141 7.63148037 5.36328125 10.40625 C5.36756638 11.21993042 5.3718515 12.03361084 5.37626648 12.87194824 C5.38201336 14.59349638 5.3825074 16.31506881 5.37817383 18.03662109 C5.37501236 20.6771768 5.39847264 23.31661407 5.42382812 25.95703125 C5.42610086 27.62760275 5.42680473 29.29817727 5.42578125 30.96875 C5.434991 31.76148315 5.44420074 32.55421631 5.45368958 33.37097168 C5.43481445 35.59570312 5.43481445 35.59570312 5.0625 39.1875 C2.0625 41.1875 2.0625 41.1875 -0.5625 40.875 C-2.9375 40.1875 -2.9375 40.1875 -3.9375 39.1875 C-4.03853255 36.38756403 -4.07720088 33.61281356 -4.0703125 30.8125 C-4.07126923 29.97283691 -4.07222595 29.13317383 -4.07321167 28.26806641 C-4.07389348 26.48925705 -4.07203917 24.71044523 -4.06787109 22.93164062 C-4.06252283 20.19916224 -4.06781605 17.46684824 -4.07421875 14.734375 C-4.07355797 13.0104163 -4.07227681 11.28645771 -4.0703125 9.5625 C-4.07233673 8.73959473 -4.07436096 7.91668945 -4.07644653 7.06884766 C-4.04810584 0.25838973 -4.04810584 0.25838973 0 0 Z " fill="#2463EB" transform="translate(381.9375,234.8125)"/>
<path d="M0 0 C2.9375 0.1875 2.9375 0.1875 3.9375 1.1875 C4.06334451 3.97571858 4.12616347 6.73782711 4.140625 9.52734375 C4.14632507 10.36463516 4.15202515 11.20192657 4.15789795 12.06459045 C4.16736154 13.83918997 4.17388731 15.61380716 4.17773438 17.38842773 C4.18744709 20.11017323 4.21845987 22.8311661 4.25 25.55273438 C4.25652899 27.273433 4.26177987 28.99413704 4.265625 30.71484375 C4.2779718 31.53258774 4.2903186 32.35033173 4.30303955 33.19285583 C4.29394531 35.48803711 4.29394531 35.48803711 3.9375 39.1875 C0.9375 41.1875 0.9375 41.1875 -1.6875 40.875 C-4.0625 40.1875 -4.0625 40.1875 -5.0625 39.1875 C-5.17590974 36.47195608 -5.2266802 33.78279957 -5.23046875 31.06640625 C-5.23379715 30.25131088 -5.23712555 29.43621552 -5.24055481 28.59642029 C-5.24562742 26.86889207 -5.24796303 25.14135402 -5.24780273 23.41381836 C-5.24998792 20.76464755 -5.26813621 18.11589384 -5.28710938 15.46679688 C-5.29004344 13.7916681 -5.29202815 12.11653733 -5.29296875 10.44140625 C-5.30015427 9.64553604 -5.30733978 8.84966583 -5.31474304 8.02967834 C-5.28259001 0.32342388 -5.28259001 0.32342388 0 0 Z " fill="#2463EB" transform="translate(130.0625,234.8125)"/>
<path d="M0 0 C2.83666992 0.11645508 2.83666992 0.11645508 6 1 C7.95043945 3.22143555 7.95043945 3.22143555 9.61328125 6.13671875 C10.22107422 7.18923828 10.82886719 8.24175781 11.45507812 9.32617188 C12.37450195 10.9900293 12.37450195 10.9900293 13.3125 12.6875 C14.26092773 14.32235352 14.26092773 14.32235352 15.22851562 15.99023438 C18.11038675 21.06516927 20.29881802 25.14163267 21 31 C19.3125 32.625 19.3125 32.625 17 34 C14.15842946 33.50022629 12.52507439 32.67447091 10.73950195 30.38085938 C9.41642372 28.26893777 8.1958983 26.12394032 7 23.9375 C6.56719727 23.16760742 6.13439453 22.39771484 5.68847656 21.60449219 C4.83593569 20.08608418 3.98843712 18.5648319 3.14648438 17.04052734 C2.19798052 15.35236822 1.19206933 13.69660758 0.171875 12.05078125 C-3.14307422 6.68675627 -3.14307422 6.68675627 -2.375 3 C-1 1 -1 1 0 0 Z " fill="#2462EB" transform="translate(334,192)"/>
<path d="M0 0 C2.4375 0.9375 2.4375 0.9375 3.76025391 3.13037109 C4.68661247 6.97005055 3.6473439 8.39393664 1.7109375 11.7890625 C1.09089844 12.88734375 0.47085938 13.985625 -0.16796875 15.1171875 C-0.83441406 16.25414062 -1.50085938 17.39109375 -2.1875 18.5625 C-3.15236328 20.27953125 -3.15236328 20.27953125 -4.13671875 22.03125 C-9.6794344 31.70539435 -9.6794344 31.70539435 -13.5625 33.9375 C-16.25 33.4375 -16.25 33.4375 -18.5625 31.9375 C-19.74567245 28.73851328 -19.70708284 27.30162641 -18.43847656 24.10668945 C-17.86581055 23.09823975 -17.29314453 22.08979004 -16.703125 21.05078125 C-16.08179688 19.94798828 -15.46046875 18.84519531 -14.8203125 17.70898438 C-14.15773437 16.56751953 -13.49515625 15.42605469 -12.8125 14.25 C-12.15768712 13.08594218 -11.50402847 11.92123428 -10.8515625 10.75585938 C-4.65504986 -0.1135378 -4.65504986 -0.1135378 0 0 Z " fill="#2462EB" transform="translate(176.5625,192.0625)"/>
<path d="M0 0 C2 3 2 3 1.85546875 5.51171875 C0.82515041 8.50858078 -0.01454327 9.17710504 -2.6875 10.8125 C-3.491875 11.30621094 -4.29625 11.79992187 -5.125 12.30859375 C-6.07375 12.86675781 -7.0225 13.42492187 -8 14 C-9.16708803 14.71936892 -10.33373102 15.43946021 -11.5 16.16015625 C-12.72801778 16.90034693 -13.95718375 17.63863608 -15.1875 18.375 C-15.76910889 18.73311768 -16.35071777 19.09123535 -16.94995117 19.46020508 C-20.77753685 21.68974518 -23.58248285 22.57536403 -28 22 C-30 20 -30 20 -30.34765625 17.546875 C-30 15 -30 15 -28.55859375 13.515625 C-27.85863281 13.09796875 -27.15867187 12.6803125 -26.4375 12.25 C-25.62539063 11.75757813 -24.81328125 11.26515625 -23.9765625 10.7578125 C-22.50316406 9.88769531 -22.50316406 9.88769531 -21 9 C-19.75576078 8.2089471 -18.51370307 7.41445613 -17.2734375 6.6171875 C-15.95383478 5.78533131 -14.63352051 4.95460283 -13.3125 4.125 C-12.68335693 3.71926758 -12.05421387 3.31353516 -11.40600586 2.89550781 C-7.48067699 0.48834469 -4.61228286 -0.76983931 0 0 Z " fill="#2462EB" transform="translate(316,317)"/>
<path d="M0 0 C4.76383847 0.48873653 7.89039518 2.542152 11.90234375 5.04296875 C12.98999023 5.69555664 12.98999023 5.69555664 14.09960938 6.36132812 C18.70869643 9.15659655 23.21006515 12.04250312 27.46484375 15.35546875 C28.02734375 18.04296875 28.02734375 18.04296875 27.46484375 20.35546875 C25.46484375 22.35546875 25.46484375 22.35546875 22.67285156 22.65380859 C19.08545694 22.32018635 17.20073089 21.43922994 14.13671875 19.58203125 C13.1725 19.00453125 12.20828125 18.42703125 11.21484375 17.83203125 C10.22484375 17.22101563 9.23484375 16.61 8.21484375 15.98046875 C7.209375 15.3771875 6.20390625 14.77390625 5.16796875 14.15234375 C-2.18662309 9.70400191 -2.18662309 9.70400191 -4.53515625 7.35546875 C-3.8395332 0.5383629 -3.8395332 0.5383629 0 0 Z " fill="#2462EB" transform="translate(198.53515625,316.64453125)"/>
<path d="M0 0 C2.9128418 0.41040039 2.9128418 0.41040039 4.9128418 2.41040039 C4.90389997 9.2330109 1.50998792 14.07814032 -2.0246582 19.72290039 C-2.57573242 20.6284668 -3.12680664 21.5340332 -3.69458008 22.46704102 C-7.74726921 29.07051139 -7.74726921 29.07051139 -10.0871582 31.41040039 C-15.65534002 30.84221857 -15.65534002 30.84221857 -17.0871582 29.41040039 C-16.96036491 22.30022254 -13.43799006 16.96894898 -9.8996582 10.97290039 C-9.05177734 9.44632812 -9.05177734 9.44632812 -8.18676758 7.88891602 C-7.6240918 6.92791992 -7.06141602 5.96692383 -6.48168945 4.97680664 C-5.97484619 4.09968018 -5.46800293 3.22255371 -4.94580078 2.31884766 C-3.0871582 0.41040039 -3.0871582 0.41040039 0 0 Z " fill="#2462EB" transform="translate(393.087158203125,320.589599609375)"/>
<path d="M0 0 C3.0871582 0.41040039 3.0871582 0.41040039 4.94580078 2.31884766 C5.45264404 3.19597412 5.9594873 4.07310059 6.48168945 4.97680664 C7.32570313 6.41830078 7.32570313 6.41830078 8.18676758 7.88891602 C8.75202148 8.90663086 9.31727539 9.9243457 9.8996582 10.97290039 C10.48424805 11.96354492 11.06883789 12.95418945 11.67114258 13.97485352 C14.64177113 19.15538187 16.84270834 23.40030559 17.0871582 29.41040039 C14.0871582 31.41040039 14.0871582 31.41040039 11.57543945 31.26586914 C8.57857742 30.2355508 7.91005317 29.39585712 6.2746582 26.72290039 C5.5340918 25.51827148 5.5340918 25.51827148 4.77856445 24.28930664 C3.94131836 22.86424805 3.94131836 22.86424805 3.0871582 21.41040039 C2.36750134 20.23177356 1.64742635 19.05340198 0.92700195 17.87524414 C0.18680114 16.63810938 -0.55148799 15.39982878 -1.2878418 14.16040039 C-1.64595947 13.5704126 -2.00407715 12.9804248 -2.37304688 12.37255859 C-4.36195216 8.9386765 -5.54870931 6.39517013 -4.9128418 2.41040039 C-2.9128418 0.41040039 -2.9128418 0.41040039 0 0 Z " fill="#2462EB" transform="translate(118.912841796875,320.589599609375)"/>
<path d="M0 0 C2.9375 0.1875 2.9375 0.1875 3.9375 1.1875 C4.15582989 5.58748945 4.12329146 9.99284812 4.12280273 14.39770508 C4.12498751 16.61233782 4.14313531 18.82647123 4.16210938 21.04101562 C4.16504356 22.44270662 4.16702819 23.8444 4.16796875 25.24609375 C4.17207764 26.52798584 4.17618652 27.80987793 4.18041992 29.13061523 C3.9375 32.1875 3.9375 32.1875 1.9375 34.1875 C-0.5625 34.4375 -0.5625 34.4375 -3.0625 34.1875 C-5.89509575 31.35490425 -5.32088261 29.4605534 -5.328125 25.5 C-5.33003845 24.84169189 -5.3319519 24.18338379 -5.33392334 23.50512695 C-5.3352845 22.1131146 -5.33159283 20.72108953 -5.32324219 19.32910156 C-5.312541 17.19567411 -5.32313906 15.06308869 -5.3359375 12.9296875 C-5.33461589 11.57812314 -5.33205347 10.2265593 -5.328125 8.875 C-5.32586914 7.64136719 -5.32361328 6.40773437 -5.32128906 5.13671875 C-4.95783363 0.9946983 -4.14512631 0.25378324 0 0 Z " fill="#2463EB" transform="translate(369.0625,234.8125)"/>
<path d="M0 0 C3.0625 0.1875 3.0625 0.1875 5.0625 2.1875 C5.32128906 5.13671875 5.32128906 5.13671875 5.328125 8.875 C5.33003845 9.53330811 5.3319519 10.19161621 5.33392334 10.86987305 C5.3352845 12.2618854 5.33159283 13.65391047 5.32324219 15.04589844 C5.312541 17.17932589 5.32313906 19.31191131 5.3359375 21.4453125 C5.33461589 22.79687686 5.33205347 24.1484407 5.328125 25.5 C5.32586914 26.73363281 5.32361328 27.96726562 5.32128906 29.23828125 C5.0625 32.1875 5.0625 32.1875 3.0625 34.1875 C0.5625 34.4375 0.5625 34.4375 -1.9375 34.1875 C-3.9375 32.1875 -3.9375 32.1875 -4.18041992 29.13061523 C-4.17425659 27.2077771 -4.17425659 27.2077771 -4.16796875 25.24609375 C-4.16751053 24.56321793 -4.16705231 23.8803421 -4.1665802 23.17677307 C-4.16355891 21.73347231 -4.15567622 20.29017478 -4.14331055 18.84692383 C-4.1250433 16.63025447 -4.12280093 14.41400242 -4.12304688 12.19726562 C-4.0811539 0.26049919 -4.0811539 0.26049919 0 0 Z " fill="#2463EB" transform="translate(142.9375,234.8125)"/>
<path d="M0 0 C1.010625 0.0825 2.02125 0.165 3.0625 0.25 C5.0625 3.25 5.0625 3.25 4.82861328 5.64941406 C3.51338121 10.11399407 1.21365394 13.9622482 -1.0625 18 C-1.52398437 18.87527344 -1.98546875 19.75054687 -2.4609375 20.65234375 C-5.954503 26.84286504 -5.954503 26.84286504 -8.86621094 28.04882812 C-10.8046875 28.328125 -10.8046875 28.328125 -13.9375 28.25 C-15.9375 25.25 -15.9375 25.25 -15.90625 22.64453125 C-14.54688962 17.88128863 -12.08403726 14.09396343 -9.4375 9.9375 C-8.92574219 9.11443359 -8.41398437 8.29136719 -7.88671875 7.44335938 C-3.4171178 0.29081854 -3.4171178 0.29081854 0 0 Z " fill="#2462EB" transform="translate(379.9375,316.75)"/>
<path d="M0 0 C3.3125 0.625 3.3125 0.625 4.796875 2.2109375 C6.4179586 4.6251319 7.86513825 7.1027593 9.3125 9.625 C9.9621875 10.63433594 10.611875 11.64367187 11.28125 12.68359375 C11.9309375 13.71613281 12.580625 14.74867188 13.25 15.8125 C13.85714844 16.77542969 14.46429688 17.73835938 15.08984375 18.73046875 C16.55510526 22.19934663 16.31342442 24.04137942 15.3125 27.625 C14.3125 28.625 14.3125 28.625 11.15625 28.828125 C8.38141984 28.38267681 7.46514626 27.80076921 5.59765625 25.65039062 C3.86692252 22.95052901 2.32277647 20.2039507 0.8125 17.375 C0.26335937 16.41980469 -0.28578125 15.46460938 -0.8515625 14.48046875 C-4.77059172 7.40061445 -4.77059172 7.40061445 -4.39257812 3.87207031 C-3.40408857 0.72177326 -3.29434883 0.76612763 0 0 Z " fill="#2462EB" transform="translate(131.6875,316.375)"/>
<path d="M0 0 C1.625 1.75 1.625 1.75 3 4 C3.49628906 4.80953125 3.99257812 5.6190625 4.50390625 6.453125 C4.99761719 7.29359375 5.49132812 8.1340625 6 9 C6.50402344 9.79921875 7.00804687 10.5984375 7.52734375 11.421875 C11.08115636 17.28911134 11.08115636 17.28911134 10.69140625 20.703125 C10 23 10 23 9 24 C6.3125 24.625 6.3125 24.625 3 24 C0.51034207 21.2914023 -1.19273308 18.18929456 -3 15 C-3.50273437 14.21109375 -4.00546875 13.4221875 -4.5234375 12.609375 C-6.76592865 8.96687557 -8.01518931 6.85060132 -7.9375 2.5 C-6.31725977 -1.82064061 -3.97891173 -1.26160616 0 0 Z " fill="#2462EA" transform="translate(149,314)"/>
<path d="M0 0 C3.125 0.375 3.125 0.375 6 1 C6.97573715 3.96984076 7.35392619 6.12548507 6.16113281 9.07275391 C4.88822732 11.37267431 3.53563347 13.5944396 2.125 15.8125 C1.65191406 16.58787109 1.17882812 17.36324219 0.69140625 18.16210938 C-2.72544643 23.72544643 -2.72544643 23.72544643 -4 25 C-6.9375 25.25 -6.9375 25.25 -10 25 C-12 22 -12 22 -11.90234375 19.79296875 C-10.65857818 15.94321819 -8.68608899 12.73882277 -6.5625 9.3125 C-6.15451172 8.63638672 -5.74652344 7.96027344 -5.32617188 7.26367188 C-3.70800884 4.61072922 -2.20518618 2.20518618 0 0 Z " fill="#2462EB" transform="translate(364,313)"/>
<path d="M0 0 C0.99 0.103125 1.98 0.20625 3 0.3125 C5.10448454 3.46922682 5.25548261 4.2643109 5.265625 7.875 C5.26820313 8.75414062 5.27078125 9.63328125 5.2734375 10.5390625 C5.26570312 11.45429688 5.25796875 12.36953125 5.25 13.3125 C5.25773438 14.22773438 5.26546875 15.14296875 5.2734375 16.0859375 C5.27085937 16.96507812 5.26828125 17.84421875 5.265625 18.75 C5.26336914 19.55308594 5.26111328 20.35617188 5.25878906 21.18359375 C5 23.3125 5 23.3125 3 26.3125 C0 26.6875 0 26.6875 -3 26.3125 C-5.14394034 23.0965895 -5.25580474 22.20219066 -5.265625 18.49609375 C-5.26820313 17.56732422 -5.27078125 16.63855469 -5.2734375 15.68164062 C-5.26183594 14.23047852 -5.26183594 14.23047852 -5.25 12.75 C-5.25773438 11.77869141 -5.26546875 10.80738281 -5.2734375 9.80664062 C-5.27085937 8.87916016 -5.26828125 7.95167969 -5.265625 6.99609375 C-5.26336914 6.14587646 -5.26111328 5.29565918 -5.25878906 4.41967773 C-4.81716173 0.82374801 -3.45051284 0.35942842 0 0 Z " fill="#2462EB" transform="translate(157,234.6875)"/>
<path d="M0 0 C3 -0.375 3 -0.375 6 0 C8.10448454 3.15672682 8.25548261 3.9518109 8.265625 7.5625 C8.26820313 8.44164062 8.27078125 9.32078125 8.2734375 10.2265625 C8.26570313 11.14179688 8.25796875 12.05703125 8.25 13 C8.25773437 13.91523438 8.26546875 14.83046875 8.2734375 15.7734375 C8.27085937 16.65257812 8.26828125 17.53171875 8.265625 18.4375 C8.26336914 19.24058594 8.26111328 20.04367188 8.25878906 20.87109375 C8 23 8 23 6 26 C3 26.375 3 26.375 0 26 C-2.10448454 22.84327318 -2.25548261 22.0481891 -2.265625 18.4375 C-2.26820313 17.55835938 -2.27078125 16.67921875 -2.2734375 15.7734375 C-2.26570313 14.85820312 -2.25796875 13.94296875 -2.25 13 C-2.25773437 12.08476562 -2.26546875 11.16953125 -2.2734375 10.2265625 C-2.27085937 9.34742188 -2.26828125 8.46828125 -2.265625 7.5625 C-2.26336914 6.75941406 -2.26111328 5.95632812 -2.25878906 5.12890625 C-2 3 -2 3 0 0 Z " fill="#2563EA" transform="translate(352,235)"/>
<path d="M0 0 C3.3125 0.625 3.3125 0.625 4.90234375 2.38671875 C6.47870968 4.74926209 7.91035189 7.15548633 9.3125 9.625 C9.73015625 10.27855469 10.1478125 10.93210938 10.578125 11.60546875 C12.71870782 15.0198491 14.00684683 17.57464347 13.3125 21.625 C11.3125 23.625 11.3125 23.625 8.453125 24.140625 C5.3125 23.625 5.3125 23.625 3.046875 20.921875 C2.36277378 19.75253919 1.70188587 18.56937281 1.0625 17.375 C0.72476562 16.78847656 0.38703125 16.20195312 0.0390625 15.59765625 C-0.89802841 13.95590248 -1.79415736 12.2909633 -2.6875 10.625 C-3.10128906 9.88121094 -3.51507813 9.13742188 -3.94140625 8.37109375 C-5.01126553 5.86728696 -4.44648961 4.17796504 -3.6875 1.625 C-2.6875 0.625 -2.6875 0.625 0 0 Z " fill="#2462EB" transform="translate(329.6875,208.375)"/>
<path d="M0 0 C1.010625 0.0825 2.02125 0.165 3.0625 0.25 C5.0625 3.25 5.0625 3.25 4.9375 5.484375 C3.79008825 9.11101569 1.99238432 12.24753761 0.0625 15.5 C-0.49050781 16.45519531 -0.49050781 16.45519531 -1.0546875 17.4296875 C-3.76323342 22.07573342 -3.76323342 22.07573342 -4.9375 23.25 C-7.875 23.4375 -7.875 23.4375 -10.9375 23.25 C-11.5975 22.59 -12.2575 21.93 -12.9375 21.25 C-12.72187108 15.73798562 -10.92258599 11.88394108 -7.9375 7.375 C-7.56882813 6.79492188 -7.20015625 6.21484375 -6.8203125 5.6171875 C-3.41005603 0.29021753 -3.41005603 0.29021753 0 0 Z " fill="#2461EB" transform="translate(181.9375,208.75)"/>
<path d="M0 0 C3 0.125 3 0.125 4 1.125 C5.14823906 7.7273746 2.26531238 11.47502164 -1.37109375 16.8671875 C-3 19.125 -3 19.125 -4 20.125 C-7 20.25 -7 20.25 -10 20.125 C-11 19.125 -11 19.125 -11.5 16.25 C-11.48770897 10.35030782 -6.23845688 0.2599357 0 0 Z " fill="#2461EB" transform="translate(352,310.875)"/>
<path d="M0 0 C3.3125 0.625 3.3125 0.625 4.97265625 2.52734375 C6.5060983 4.85199668 7.92746299 7.20952883 9.3125 9.625 C10.3025 11.11 10.3025 11.11 11.3125 12.625 C11.5 16.25 11.5 16.25 11.3125 19.625 C10.3125 20.625 10.3125 20.625 7.48828125 20.9921875 C4.3125 20.625 4.3125 20.625 2.23046875 18.5078125 C1.65941406 17.59773438 1.08835938 16.68765625 0.5 15.75 C-0.08394531 14.84507812 -0.66789063 13.94015625 -1.26953125 13.0078125 C-3.69268952 8.93583855 -3.86152182 6.41060002 -3.6875 1.625 C-2.6875 0.625 -2.6875 0.625 0 0 Z " fill="#2461EB" transform="translate(159.6875,310.375)"/>
<path d="M0 0 C5.69687681 0.22340693 9.53024791 1.60298841 14 5 C15.0625 8.625 15.0625 8.625 15 12 C14.34 12.66 13.68 13.32 13 14 C7.19111024 13.8838222 2.21839028 12.01548037 -2 8 C-2.625 4.8125 -2.625 4.8125 -2 2 C-1.34 1.34 -0.68 0.68 0 0 Z " fill="#2462EB" transform="translate(316,110)"/>
<path d="M0 0 C2 2 2 2 2.75 4.75 C1.81287558 8.8108725 0.76313767 9.21130149 -2.6875 11.375 C-6.27246219 13.44631149 -8.83408121 14.52517545 -13 14 C-15 12 -15 12 -15.3671875 9.578125 C-15 7 -15 7 -13.3203125 5.234375 C-12.59585938 4.74453125 -11.87140625 4.2546875 -11.125 3.75 C-10.04605469 2.99976562 -10.04605469 2.99976562 -8.9453125 2.234375 C-5.738537 0.1995536 -3.81599458 -0.28619959 0 0 Z " fill="#2361EB" transform="translate(196,110)"/>
<path d="M0 0 C2 2 2 2 2.4375 4.375 C2 7 2 7 -0.25 9.1875 C-1.1575 9.785625 -2.065 10.38375 -3 11 C-3.639375 11.433125 -4.27875 11.86625 -4.9375 12.3125 C-7.83760889 13.27920296 -10.06674748 12.6666483 -13 12 C-13.33 10.02 -13.66 8.04 -14 6 C-5.97304236 -0.50834403 -5.97304236 -0.50834403 0 0 Z " fill="#2461EB" transform="translate(203,122)"/>
<path d="M0 0 C5.38372304 0.20706627 8.9027423 1.48806483 13 5 C14.0625 7.5625 14.0625 7.5625 14 10 C12.9375 11.875 12.9375 11.875 11 13 C5.79352176 12.88430048 1.68100117 10.68100117 -2 7 C-2.1875 4.5625 -2.1875 4.5625 -2 2 C-1.34 1.34 -0.68 0.68 0 0 Z " fill="#2462EB" transform="translate(309,122)"/>
<path d="M0 0 C3.125 1.0625 3.125 1.0625 5.5 4.25 C7.15138765 7.60805188 7.73728093 10.30134573 7.125 14.0625 C4.125 16.0625 4.125 16.0625 1.6171875 15.95703125 C-1.54833492 14.82081709 -2.20031886 13.69054403 -3.75 10.75 C-4.18054688 9.97011719 -4.61109375 9.19023437 -5.0546875 8.38671875 C-5.99167126 5.73193142 -5.94011534 4.63744378 -4.875 2.0625 C-2.875 0.0625 -2.875 0.0625 0 0 Z " fill="#2361EB" transform="translate(175.875,308.9375)"/>
<path d="M0 0 C2.5 0.875 2.5 0.875 4.125 2.875 C4.64681939 7.04955513 3.12161794 9.36905095 1.15234375 12.984375 C-0.5 14.875 -0.5 14.875 -2.99609375 15.765625 C-5.5 15.875 -5.5 15.875 -8.5 13.875 C-9.39155715 8.39829177 -7.4460156 5.29402339 -4.5 0.875 C-2.5 -0.125 -2.5 -0.125 0 0 Z " fill="#2461EB" transform="translate(337.5,309.125)"/>
<path d="M0 0 C3.0625 0.1875 3.0625 0.1875 5.0625 2.1875 C5.328125 5.15625 5.328125 5.15625 5.3125 8.6875 C5.31765625 9.8528125 5.3228125 11.018125 5.328125 12.21875 C5.0625 15.1875 5.0625 15.1875 3.0625 17.1875 C0.5625 17.4375 0.5625 17.4375 -1.9375 17.1875 C-3.9375 15.1875 -3.9375 15.1875 -4.16796875 11.96484375 C-4.14669922 10.06412109 -4.14669922 10.06412109 -4.125 8.125 C-4.11855469 6.85527344 -4.11210937 5.58554688 -4.10546875 4.27734375 C-3.88643112 0.24807007 -3.88643112 0.24807007 0 0 Z " fill="#2461EB" transform="translate(340.9375,234.8125)"/>
<path d="M0 0 C2.9375 0.1875 2.9375 0.1875 3.9375 1.1875 C4.06307162 3.49743382 4.11325729 5.81168536 4.125 8.125 C4.13917969 9.39214844 4.15335938 10.65929687 4.16796875 11.96484375 C3.9375 15.1875 3.9375 15.1875 1.9375 17.1875 C-0.5625 17.4375 -0.5625 17.4375 -3.0625 17.1875 C-5.0625 15.1875 -5.0625 15.1875 -5.328125 12.21875 C-5.32296875 11.0534375 -5.3178125 9.888125 -5.3125 8.6875 C-5.31765625 7.5221875 -5.3228125 6.356875 -5.328125 5.15625 C-4.95665651 1.00454337 -4.15908142 0.25463764 0 0 Z " fill="#2461EB" transform="translate(171.0625,234.8125)"/>
<path d="M0 0 C3.64405293 0.35726009 5.40711207 0.92931035 8.1875 3.3125 C9.125 6.375 9.125 6.375 9.1875 9.3125 C7.1875 11.3125 7.1875 11.3125 4.4375 11.6875 C0.33300491 11.21390441 -1.72403369 10.03329175 -4.8125 7.3125 C-5.3125 4.6875 -5.3125 4.6875 -4.8125 2.3125 C-2.8125 0.3125 -2.8125 0.3125 0 0 Z " fill="#2462EB" transform="translate(304.8125,133.6875)"/>
<path d="M0 0 C2 2 2 2 2.5 4.375 C2 7 2 7 -0.625 9.3125 C-4.181918 11.090959 -6.09222589 11.53287829 -10 11 C-10.66 10.34 -11.32 9.68 -12 9 C-11.9375 6.0625 -11.9375 6.0625 -11 3 C-7.48051649 -0.01670015 -4.55803168 -0.50644796 0 0 Z " fill="#2461EB" transform="translate(210,134)"/>
<path d="M0 0 C2.8125 1.25 2.8125 1.25 3.8125 2.25 C3.52519945 4.58944736 3.19313221 6.9239143 2.8125 9.25 C0.12276772 9.99714785 -1.70528598 10.3705535 -4.4375 9.6875 C-6.1875 8.25 -6.1875 8.25 -6.9375 5.125 C-7.02 4.17625 -7.1025 3.2275 -7.1875 2.25 C-4.50693118 -0.43056882 -3.80700224 -0.89576523 0 0 Z " fill="#2361EC" transform="translate(300.1875,145.75)"/>
<path d="M0 0 C2.25 1.5 2.25 1.5 3.25 3.9375 C3.25 6.5 3.25 6.5 2.0625 8.25 C0.05693296 9.63314969 -1.33619607 10.19827451 -3.75 10.5 C-4.74 10.17 -5.73 9.84 -6.75 9.5 C-7.08 7.19 -7.41 4.88 -7.75 2.5 C-3.52247191 -0.64044944 -3.52247191 -0.64044944 0 0 Z " fill="#2261EB" transform="translate(215.75,145.5)"/>
</svg>
